<?xml version="1.0" encoding="UTF-8"?>
<svg width="216px" height="132px" viewBox="0 0 216 132" version="1.1" xmlns="http://www.w3.org/2000/svg" xmlns:xlink="http://www.w3.org/1999/xlink">
    <!-- Generator: Sketch 43.2 (39069) - http://www.bohemiancoding.com/sketch -->
    <title>icn-ttl-profile</title>
    <desc>Created with Sketch.</desc>
    <defs></defs>
    <g id="Page-1" stroke="none" stroke-width="1" fill="none" fill-rule="evenodd">
        <g id="Artboard-2" transform="translate(-844.000000, -1063.000000)" fill="#787064">
            <g id="Group-19" transform="translate(887.000000, 1062.000000)">
                <path d="M11.1210021,119.845 C11.1210021,122.536 8.91300208,124.744 6.17600208,124.744 L3.34700208,124.744 L3.34700208,129.735 C3.34700208,130.425 2.77200208,131 2.05900208,131 C1.36900208,131 0.794002079,130.425 0.794002079,129.735 L0.794002079,116.165 C0.794002079,115.452 1.36900208,114.9 2.05900208,114.9 L6.17600208,114.9 C8.91300208,114.9 11.1210021,117.108 11.1210021,119.845 Z M3.34700208,117.453 L3.34700208,122.191 L6.17600208,122.191 C7.51000208,122.191 8.54500208,121.133 8.56800208,119.845 C8.54500208,118.511 7.51000208,117.453 6.17600208,117.453 L3.34700208,117.453 Z M30.4377158,128.309 C30.8057158,128.424 31.1047158,128.7 31.2427158,129.091 C31.4727158,129.758 31.1047158,130.471 30.4377158,130.701 C30.3457158,130.724 30.1617158,130.77 29.9317158,130.77 L29.9087158,130.77 C29.6787158,130.77 29.3337158,130.724 29.0117158,130.517 C28.7127158,130.333 28.4597158,130.034 28.2757158,129.712 C27.9537158,129.045 27.7927158,128.217 27.7927158,126.952 C27.7697158,126.515 27.6777158,126.216 27.5167158,125.963 C27.3787158,125.71 27.1027158,125.48 26.8267158,125.296 C26.3437158,124.974 25.7457158,124.79 25.5387158,124.744 L22.8247158,124.744 L22.8247158,129.735 C22.8247158,130.425 22.2497158,131 21.5367158,131 C20.8237158,131 20.2717158,130.425 20.2717158,129.735 L20.2717158,116.165 C20.2717158,115.452 20.8237158,114.9 21.5367158,114.9 L25.6537158,114.9 C28.3907158,114.9 30.5757158,117.108 30.5757158,119.845 C30.5757158,121.363 29.8857158,122.697 28.7817158,123.617 C29.0807158,123.847 29.3567158,124.123 29.5867158,124.468 C30.0467158,125.135 30.3457158,125.986 30.3457158,126.952 C30.3227158,127.642 30.3917158,128.079 30.4377158,128.309 Z M25.6537158,122.191 C26.9647158,122.191 28.0227158,121.133 28.0227158,119.845 C28.0227158,118.511 26.9647158,117.453 25.6537158,117.453 L22.8247158,117.453 L22.8247158,122.191 L25.6537158,122.191 Z M48.1674295,114.44 C50.2834295,114.44 52.3074295,115.383 53.6644295,116.901 C55.0904295,118.419 55.9874295,120.443 55.9874295,122.72 C55.9874295,124.997 55.0904295,127.044 53.6644295,128.539 C52.3074295,130.034 50.2834295,131 48.1674295,131 C45.9594295,131 43.9354295,130.034 42.5324295,128.539 C41.1064295,127.044 40.2554295,124.997 40.2554295,122.72 C40.2554295,120.443 41.1064295,118.419 42.5324295,116.901 C43.9354295,115.383 45.9594295,114.44 48.1674295,114.44 Z M51.8014295,126.722 C52.7444295,125.733 53.3654295,124.284 53.3654295,122.72 C53.3654295,121.156 52.7444295,119.707 51.8014295,118.695 C50.8354295,117.66 49.5474295,117.062 48.1674295,117.062 C46.6954295,117.062 45.4074295,117.66 44.4414295,118.695 C43.4754295,119.707 42.8774295,121.156 42.8774295,122.72 C42.8774295,124.284 43.4754295,125.733 44.4414295,126.722 C45.4074295,127.757 46.6954295,128.378 48.1674295,128.378 C49.5474295,128.378 50.8354295,127.757 51.8014295,126.722 Z M68.1741432,131 C68.8871432,131 69.4621432,130.425 69.4621432,129.735 L69.4621432,124.215 L74.8211432,124.215 C75.5111432,124.215 76.0861432,123.64 76.0861432,122.927 C76.0861432,122.26 75.5111432,121.662 74.8211432,121.662 L69.4621432,121.662 L69.4621432,117.453 L75.6951432,117.453 C76.3621432,117.453 76.9601432,116.878 76.9601432,116.165 C76.9601432,115.475 76.3621432,114.9 75.6951432,114.9 L68.1741432,114.9 C67.4611432,114.9 66.9091432,115.475 66.9091432,116.165 L66.9091432,129.735 C66.9091432,130.425 67.4611432,131 68.1741432,131 Z M87.3758568,129.735 C87.3758568,130.448 87.9278568,131 88.6408568,131 C89.3308568,131 89.9288568,130.448 89.9288568,129.735 L89.9288568,116.165 C89.9288568,115.452 89.3308568,114.9 88.6408568,114.9 C87.9278568,114.9 87.3758568,115.452 87.3758568,116.165 L87.3758568,129.735 Z M101.885571,131 L109.406571,131 C110.073571,131 110.671571,130.425 110.671571,129.735 C110.671571,129.022 110.073571,128.447 109.406571,128.447 L103.173571,128.447 L103.173571,116.165 C103.173571,115.475 102.598571,114.9 101.885571,114.9 C101.172571,114.9 100.620571,115.475 100.620571,116.165 L100.620571,129.735 C100.620571,130.425 101.172571,131 101.885571,131 Z M121.248284,130.977 L121.248284,130.977 C121.248284,130.977 121.248284,130.977 121.248284,130.977 Z M121.248284,130.977 L121.225284,131 C120.512284,131 119.960284,130.425 119.960284,129.735 L119.960284,116.165 C119.960284,115.452 120.512284,114.9 121.225284,114.9 L128.746284,114.9 C129.413284,114.9 130.011284,115.452 130.011284,116.165 C130.011284,116.878 129.413284,117.453 128.746284,117.453 L122.513284,117.453 L122.513284,121.662 L127.872284,121.662 C128.562284,121.662 129.137284,122.26 129.137284,122.927 C129.137284,123.64 128.562284,124.215 127.872284,124.215 L122.513284,124.215 L122.513284,128.447 L128.746284,128.447 C129.413284,128.447 130.011284,129.022 130.011284,129.735 C130.011284,130.425 129.413284,131 128.746284,131 L121.294284,131 C121.24829,131 121.248284,130.977006 121.248284,130.977 L121.248284,130.977 Z" id="PROFILE"></path>
                <path d="M44.2552036,12.6139515 C43.679691,12.6978407 43.3026065,13.4205618 43.563048,13.9405829 L66.4618599,62.1895908 L58.2136733,79.5511584 C57.965601,73.1533342 52.7025667,68.0152331 46.2451507,68.0152331 C39.6301216,68.0152331 34.2477883,73.3975267 34.2477883,80.0125955 C34.2477883,86.6275719 39.6301216,92.0099578 46.2451507,92.0099578 C51.5988417,92.0099578 55.3389271,89.0044801 57.2331196,85.9247572 L67.5000932,64.2372175 L77.7670668,85.9247572 C79.6612592,89.0044801 83.4013447,92.0099578 88.7550357,92.0099578 C95.3700647,92.0099578 100.752398,86.6275719 100.752398,80.0125955 C100.752398,73.3975267 95.3700647,68.0152331 88.7550357,68.0152331 C82.2976196,68.0152331 77.0345853,73.1533342 76.7865131,79.5511584 L68.5383265,62.1895908 L91.4371383,13.9405829 C91.6975798,13.4205618 91.3204953,12.6978407 90.7449828,12.6139515 C90.7161614,12.6130286 90.6872847,12.6130286 90.6584634,12.6139515 C90.2872751,12.5937774 89.9149213,12.821995 89.7644291,13.1619079 L67.5000932,60.1131242 L45.2357572,13.1619079 C45.0852651,12.821995 44.7129112,12.5937774 44.341723,12.6139515 C44.3129016,12.6130286 44.2840249,12.6130286 44.2552036,12.6139515 Z M46.2451507,69.8609811 C51.8626628,69.8609811 56.396765,74.3950612 56.396765,80.0125955 C56.396765,85.6301297 51.8626628,90.1642098 46.2451507,90.1642098 C40.6276377,90.1642098 36.0935364,85.6301297 36.0935364,80.0125955 C36.0935364,74.3950612 40.6276377,69.8609811 46.2451507,69.8609811 Z M88.7550357,69.8609811 C94.3725487,69.8609811 98.90665,74.3950612 98.90665,80.0125955 C98.90665,85.6301297 94.3725487,90.1642098 88.7550357,90.1642098 C83.1375236,90.1642098 78.6034213,85.6301297 78.6034213,80.0125955 C78.6034213,74.3950612 83.1375236,69.8609811 88.7550357,69.8609811 Z" id="Shape" stroke="#787064" stroke-width="2" fill-rule="nonzero" transform="translate(67.500093, 52.311336) rotate(-133.000000) translate(-67.500093, -52.311336) "></path>
            </g>
        </g>
    </g>
</svg>