<?xml version="1.0" encoding="UTF-8"?>
<svg width="216px" height="132px" viewBox="0 0 216 132" version="1.1" xmlns="http://www.w3.org/2000/svg" xmlns:xlink="http://www.w3.org/1999/xlink">
    <!-- Generator: Sketch 43.2 (39069) - http://www.bohemiancoding.com/sketch -->
    <title>icn-ttl-hair</title>
    <desc>Created with Sketch.</desc>
    <defs></defs>
    <g id="Page-1" stroke="none" stroke-width="1" fill="none" fill-rule="evenodd">
        <g id="Artboard-2" transform="translate(-1100.000000, -1063.000000)" fill="#787064">
            <g id="Group-18" transform="translate(1116.000000, 1067.000000)">
                <path d="M1.95843154,127 C2.67143154,127 3.24643154,126.448 3.24643154,125.735 L3.24643154,120.215 L9.20343154,120.215 L9.20343154,125.735 C9.20343154,126.448 9.75543154,127 10.4684315,127 C11.1814315,127 11.7564315,126.448 11.7564315,125.735 L11.7564315,112.165 C11.7564315,111.452 11.1814315,110.9 10.4684315,110.9 C9.75543154,110.9 9.20343154,111.452 9.20343154,112.165 L9.20343154,117.685 L3.24643154,117.685 L3.24643154,112.165 C3.24643154,111.452 2.67143154,110.9 1.95843154,110.9 C1.24543154,110.9 0.693431541,111.452 0.693431541,112.165 L0.693431541,125.735 C0.693431541,126.448 1.24543154,127 1.95843154,127 Z M31.2341452,126.195 L30.1071452,123.205 L24.5181452,123.205 L23.3911452,126.195 C23.1841452,126.701 22.7011452,127 22.1951452,127 C22.0341452,127 21.8961452,126.977 21.7581452,126.931 C21.0911452,126.678 20.7691452,125.942 20.9991452,125.275 L26.0821452,111.728 C26.2891452,111.222 26.7951452,110.9 27.3011452,110.923 C27.8301452,110.9 28.3131452,111.222 28.5201452,111.728 L33.6031452,125.275 C33.8331452,125.942 33.5111452,126.678 32.8441452,126.931 C32.7291452,126.977 32.5681452,127 32.4071452,127 C31.9011452,127 31.4181452,126.701 31.2341452,126.195 Z M25.4381452,120.675 L29.1641452,120.675 L27.3011452,115.73 L25.4381452,120.675 Z M43.3058589,125.735 C43.3058589,126.448 43.8578589,127 44.5708589,127 C45.2608589,127 45.8588589,126.448 45.8588589,125.735 L45.8588589,112.165 C45.8588589,111.452 45.2608589,110.9 44.5708589,110.9 C43.8578589,110.9 43.3058589,111.452 43.3058589,112.165 L43.3058589,125.735 Z M66.3945726,124.309 C66.7625726,124.424 67.0615726,124.7 67.1995726,125.091 C67.4295726,125.758 67.0615726,126.471 66.3945726,126.701 C66.3025726,126.724 66.1185726,126.77 65.8885726,126.77 L65.8655726,126.77 C65.6355726,126.77 65.2905726,126.724 64.9685726,126.517 C64.6695726,126.333 64.4165726,126.034 64.2325726,125.712 C63.9105726,125.045 63.7495726,124.217 63.7495726,122.952 C63.7265726,122.515 63.6345726,122.216 63.4735726,121.963 C63.3355726,121.71 63.0595726,121.48 62.7835726,121.296 C62.3005726,120.974 61.7025726,120.79 61.4955726,120.744 L58.7815726,120.744 L58.7815726,125.735 C58.7815726,126.425 58.2065726,127 57.4935726,127 C56.7805726,127 56.2285726,126.425 56.2285726,125.735 L56.2285726,112.165 C56.2285726,111.452 56.7805726,110.9 57.4935726,110.9 L61.6105726,110.9 C64.3475726,110.9 66.5325726,113.108 66.5325726,115.845 C66.5325726,117.363 65.8425726,118.697 64.7385726,119.617 C65.0375726,119.847 65.3135726,120.123 65.5435726,120.468 C66.0035726,121.135 66.3025726,121.986 66.3025726,122.952 C66.2795726,123.642 66.3485726,124.079 66.3945726,124.309 Z M61.6105726,118.191 C62.9215726,118.191 63.9795726,117.133 63.9795726,115.845 C63.9795726,114.511 62.9215726,113.453 61.6105726,113.453 L58.7815726,113.453 L58.7815726,118.191 L61.6105726,118.191 Z M90.285,124.677 C91.596,125.712 93.689,126.954 96.173,126.977 C97.806,126.977 99.301,126.494 100.428,125.666 C101.578,124.838 102.406,123.573 102.406,122.101 C102.406,121.388 102.199,120.698 101.854,120.146 C101.325,119.295 100.497,118.697 99.554,118.237 C98.634,117.8 97.553,117.501 96.38,117.271 L96.334,117.271 C95.092,117.041 94.057,116.673 93.459,116.259 C93.16,116.052 92.953,115.845 92.838,115.661 C92.723,115.477 92.677,115.293 92.677,115.017 C92.677,114.534 92.93,114.028 93.551,113.568 C94.172,113.108 95.092,112.786 96.127,112.786 C97.53,112.786 98.657,113.476 99.83,114.258 C100.382,114.626 101.118,114.465 101.463,113.913 C101.831,113.384 101.67,112.648 101.141,112.28 C99.968,111.521 98.335,110.44 96.127,110.44 C94.632,110.44 93.229,110.877 92.148,111.659 C91.09,112.441 90.308,113.637 90.308,115.017 C90.308,115.707 90.492,116.351 90.837,116.903 C91.343,117.708 92.102,118.283 92.976,118.697 C93.85,119.111 94.862,119.387 95.943,119.594 L95.989,119.594 C97.346,119.847 98.473,120.238 99.14,120.675 C99.485,120.905 99.692,121.135 99.83,121.365 C99.968,121.595 100.037,121.802 100.037,122.101 C100.037,122.676 99.738,123.251 99.048,123.757 C98.358,124.263 97.323,124.608 96.173,124.608 C94.54,124.631 92.792,123.665 91.78,122.837 C91.274,122.423 90.515,122.492 90.101,122.998 C89.71,123.504 89.779,124.263 90.285,124.677 Z M123.102714,112.165 C123.102714,111.452 122.527714,110.9 121.837714,110.9 L112.016714,110.9 C111.303714,110.9 110.751714,111.452 110.751714,112.165 C110.751714,112.855 111.303714,113.453 112.016714,113.453 L115.650714,113.453 L115.650714,125.735 C115.650714,126.448 116.225714,127 116.915714,127 C117.628714,127 118.180714,126.448 118.180714,125.735 L118.180714,113.453 L121.837714,113.453 C122.527714,113.453 123.102714,112.855 123.102714,112.165 Z M144.213427,111.314 C143.661427,110.9 142.879427,111.015 142.442427,111.59 L138.509427,116.972 L134.576427,111.59 C134.185427,111.015 133.403427,110.9 132.828427,111.314 C132.253427,111.728 132.138427,112.51 132.575427,113.062 L137.244427,119.525 L137.244427,125.735 C137.244427,126.448 137.842427,127 138.509427,127 C139.222427,127 139.774427,126.448 139.774427,125.735 L139.774427,119.525 L144.489427,113.062 C144.880427,112.51 144.765427,111.728 144.213427,111.314 Z M155.986141,127 L163.507141,127 C164.174141,127 164.772141,126.425 164.772141,125.735 C164.772141,125.022 164.174141,124.447 163.507141,124.447 L157.274141,124.447 L157.274141,112.165 C157.274141,111.475 156.699141,110.9 155.986141,110.9 C155.273141,110.9 154.721141,111.475 154.721141,112.165 L154.721141,125.735 C154.721141,126.425 155.273141,127 155.986141,127 Z M175.325855,127 L175.348855,126.977 C175.348855,126.977 175.348855,127 175.394855,127 L182.846855,127 C183.513855,127 184.111855,126.425 184.111855,125.735 C184.111855,125.022 183.513855,124.447 182.846855,124.447 L176.613855,124.447 L176.613855,120.215 L181.972855,120.215 C182.662855,120.215 183.237855,119.64 183.237855,118.927 C183.237855,118.26 182.662855,117.662 181.972855,117.662 L176.613855,117.662 L176.613855,113.453 L182.846855,113.453 C183.513855,113.453 184.111855,112.878 184.111855,112.165 C184.111855,111.452 183.513855,110.9 182.846855,110.9 L175.325855,110.9 C174.612855,110.9 174.060855,111.452 174.060855,112.165 L174.060855,125.735 C174.060855,126.425 174.612855,127 175.325855,127 Z" id="HAIR-STYLE"></path>
                <path d="M111.584146,8.088 C106.519146,2.645 99.2951461,0 89.5051461,0 C63.7991461,0 57.8461461,18.215 56.4781461,26.052 C56.2591461,27.355 57.1341461,28.597 58.4291461,28.821 C59.7201461,29.04 60.9701461,28.169 61.1991461,26.874 C62.3571461,20.234 67.4341461,4.79 89.5051461,4.79 C98.2271461,4.79 104.472146,7.126 108.601146,11.936 C109.037146,12.439 109.670146,12.741 110.353146,12.768 C118.216146,12.96 128.255146,42.666 128.255146,65.742 C128.255146,76.366 122.118146,85.055 120.126146,85.055 C117.180146,85.055 112.873146,84.726 110.655146,84.536 L107.418146,75.833 C112.651146,70.79 116.690146,62.103 118.828146,51.276 C119.064146,50.077 118.328146,48.863 117.141146,48.512 C114.335146,47.705 110.616146,30.928 110.616146,19.082 C110.616146,18.026 109.936146,17.109 108.925146,16.797 C107.916146,16.488 106.838146,16.862 106.246146,17.728 C100.779146,25.671 72.3951461,37.299 58.5611461,37.299 C57.3291461,37.293 56.2121461,38.05 55.9811461,39.249 C55.4741461,41.982 54.2951461,45.152 53.0481461,48.507 C50.7471461,54.689 48.1391461,61.691 48.0021461,69.71 C47.9221461,74.44 50.0801461,81.755 54.2421461,85.994 C56.7531461,88.55 59.7071461,89.847 63.0171461,89.847 C72.0841461,89.847 74.7251461,89.167 74.9771461,89.096 C75.7201461,88.901 76.3301461,88.355 76.6121461,87.629 L80.5451461,77.219 C80.9641461,76.118 80.5321461,74.889 79.5181461,74.296 C73.4031461,70.731 68.3531461,63.873 65.6631461,55.483 C65.2671461,54.235 63.9231461,53.538 62.6611461,53.925 C62.0501461,54.115 61.5521461,54.535 61.2571461,55.105 C60.9591461,55.675 60.9041461,56.326 61.1021461,56.936 C63.9301461,65.763 68.9841461,72.978 75.3771461,77.345 L72.6201461,84.638 C71.1261461,84.819 68.1851461,85.055 63.0171461,85.055 C61.0411461,85.055 59.2401461,84.241 57.6621461,82.637 C54.2081461,79.123 52.7361461,73.009 52.7941461,69.793 C52.9181461,62.581 55.3721461,55.987 57.5541461,50.126 C58.6081461,47.286 59.6101461,44.594 60.2661461,42.039 C72.5821461,41.365 95.3881461,33.398 106.095146,24.674 C106.580146,30.589 108.403146,47.247 113.790146,51.968 C111.625146,61.817 107.833146,69.376 103.083146,73.29 C102.302146,73.931 102.010146,75.008 102.361146,75.973 L106.692146,87.622 C107.023146,88.489 107.796146,89.079 108.674146,89.16 C109.039146,89.206 115.732146,89.847 120.126146,89.847 C126.778146,89.847 133.040146,76.266 133.040146,65.742 C133.040146,44.366 123.851146,10.306 111.584146,8.088" id="Fill-1"></path>
            </g>
        </g>
    </g>
</svg>