<?xml version="1.0" encoding="UTF-8"?>
<svg width="216px" height="132px" viewBox="0 0 216 132" version="1.1" xmlns="http://www.w3.org/2000/svg" xmlns:xlink="http://www.w3.org/1999/xlink">
    <!-- Generator: Sketch 43.2 (39069) - http://www.bohemiancoding.com/sketch -->
    <title>icn-ttl-faq</title>
    <desc>Created with Sketch.</desc>
    <defs></defs>
    <g id="Page-1" stroke="none" stroke-width="1" fill="none" fill-rule="evenodd">
        <g id="Artboard-2" transform="translate(-1901.000000, -1063.000000)" fill="#787064">
            <g id="Group-3" transform="translate(1960.000000, 1066.000000)">
                <path d="M18.4330102,122.30822 C19.1460102,122.30822 19.7210102,121.73322 19.7210102,121.04322 L19.7210102,115.52322 L25.0800102,115.52322 C25.7700102,115.52322 26.3450102,114.94822 26.3450102,114.23522 C26.3450102,113.56822 25.7700102,112.97022 25.0800102,112.97022 L19.7210102,112.97022 L19.7210102,108.76122 L25.9540102,108.76122 C26.6210102,108.76122 27.2190102,108.18622 27.2190102,107.47322 C27.2190102,106.78322 26.6210102,106.20822 25.9540102,106.20822 L18.4330102,106.20822 C17.7200102,106.20822 17.1680102,106.78322 17.1680102,107.47322 L17.1680102,121.04322 C17.1680102,121.73322 17.7200102,122.30822 18.4330102,122.30822 Z M44.9717238,121.50322 L43.8447238,118.51322 L38.2557238,118.51322 L37.1287238,121.50322 C36.9217238,122.00922 36.4387238,122.30822 35.9327238,122.30822 C35.7717238,122.30822 35.6337238,122.28522 35.4957238,122.23922 C34.8287238,121.98622 34.5067238,121.25022 34.7367238,120.58322 L39.8197238,107.03622 C40.0267238,106.53022 40.5327238,106.20822 41.0387238,106.23122 C41.5677238,106.20822 42.0507238,106.53022 42.2577238,107.03622 L47.3407238,120.58322 C47.5707238,121.25022 47.2487238,121.98622 46.5817238,122.23922 C46.4667238,122.28522 46.3057238,122.30822 46.1447238,122.30822 C45.6387238,122.30822 45.1557238,122.00922 44.9717238,121.50322 Z M39.1757238,115.98322 L42.9017238,115.98322 L41.0387238,111.03822 L39.1757238,115.98322 Z M73.3734375,122.67622 C73.8334375,123.25122 73.7414375,124.07922 73.1204375,124.58522 C71.8554375,125.55122 70.5444375,126.03422 69.3254375,126.03422 L69.2564375,126.03422 C67.6464375,126.03422 66.2894375,125.39022 65.0474375,124.65422 C64.5874375,124.40122 64.1044375,124.30922 63.6444375,124.30922 C62.8854375,124.30922 62.1034375,124.63122 62.0114375,124.70022 C61.5514375,124.95322 61.0224375,124.90722 60.6774375,124.63122 C60.6544375,124.60822 60.6084375,124.60822 60.5394375,124.58522 C60.5164375,124.56222 60.5164375,124.56222 60.4934375,124.56222 C60.3784375,124.40122 60.2404375,124.26322 60.1714375,124.03322 C59.8264375,123.34322 60.1484375,122.58422 60.7924375,122.26222 L60.8614375,122.21622 C59.9414375,121.77922 59.0674375,121.18122 58.3084375,120.46822 C56.9054375,118.90422 56.0084375,116.78822 56.0084375,114.46522 C56.0084375,112.16522 56.9054375,110.07222 58.3084375,108.53122 C59.7804375,106.94422 61.8044375,105.97822 64.0584375,105.97822 C66.3124375,105.97822 68.3594375,106.94422 69.7624375,108.53122 C71.2344375,110.07222 72.1084375,112.16522 72.1084375,114.46522 C72.1084375,116.78822 71.2344375,118.90422 69.7624375,120.46822 C69.0494375,121.20422 68.1754375,121.82522 67.2094375,122.28522 L66.6804375,122.49222 C67.6464375,123.02122 68.5204375,123.32022 69.2564375,123.32022 C69.9234375,123.32022 70.5674375,123.15922 71.5104375,122.44622 C72.0854375,121.98622 72.9134375,122.10122 73.3734375,122.67622 Z M58.7224375,114.46522 C58.7224375,116.09822 59.3204375,117.54722 60.3094375,118.60522 C61.2524375,119.64022 62.5634375,120.26122 64.0584375,120.26122 C65.5304375,120.26122 66.8414375,119.64022 67.8534375,118.60522 C68.8424375,117.54722 69.4404375,116.09822 69.4404375,114.46522 C69.4404375,112.83222 68.8424375,111.38322 67.8534375,110.37122 C66.8414375,109.31322 65.5304375,108.69222 64.0584375,108.69222 C62.5634375,108.69222 61.2524375,109.31322 60.3094375,110.37122 C59.3204375,111.38322 58.7224375,112.83222 58.7224375,114.46522 Z" id="FAQ"></path>
                <path d="M8.86946455,0.850815281 C4.28797662,0.850815281 0.534580539,4.60421136 0.534580539,9.18569897 L0.534580539,50.8601591 C0.534580539,55.4416363 4.28797662,59.1950428 8.86946455,59.1950428 L15.9345808,59.1950428 L14.0787669,77.7205721 C13.9871873,78.5719804 14.4805812,79.4554781 15.2534645,79.8241925 C16.0263479,80.1929069 17.0234396,80.020479 17.6276041,79.4135953 L37.8462086,59.1950428 L48.4601621,59.1950428 L48.4601621,75.1485311 C48.4601621,78.8550539 51.4186707,81.9696958 55.1020225,81.9857404 L73.6927202,82.0836753 L84.5671387,91.9487395 C85.1862435,92.5191581 86.1665612,92.6558502 86.918076,92.2766129 C87.6696012,91.8972715 88.1419599,91.0275264 88.0508596,90.1905999 L87.2369062,82.0836753 L91.860162,82.0836753 C95.5544741,82.0836753 98.5345805,78.9529888 98.5345805,75.246466 L98.5345805,47.3115824 C98.5345805,43.6049867 95.5482751,40.5160788 91.860162,40.5069104 L81.7996969,40.4746127 L81.7996969,9.18621991 C81.7996969,4.60473229 78.0463008,0.851336211 73.4648132,0.851336211 L8.86946455,0.850815281 Z M8.86946455,5.01825713 L73.4648132,5.01825713 C75.8096348,5.01825713 77.632255,6.8408774 77.632255,9.18569897 L77.632255,40.4740918 L55.1345807,40.4094965 C51.4345383,40.3990779 48.4601621,43.540183 48.4601621,47.2466745 L48.4601621,55.0281219 L36.999697,55.0281219 C36.4558042,55.0281219 35.9170165,55.2599359 35.5345807,55.6466745 L18.8322552,72.3490521 L20.3299296,57.3071917 C20.4384915,56.1530186 19.4054764,55.023121 18.2462087,55.0281219 L8.86946455,55.0281219 C6.52464266,55.0281219 4.70202239,53.2054912 4.70202239,50.8606801 L4.70202239,9.18621991 C4.70202239,6.84139833 6.52464266,5.01877806 8.86946455,5.01877806 L8.86946455,5.01825713 Z M37.9438831,9.15314084 C32.0162388,9.15314084 26.8492152,12.7319524 25.6043482,17.9112803 C25.243229,19.0014727 25.9762924,20.3219892 27.0925313,20.5920498 C28.2087806,20.8621105 29.4643995,20.0227252 29.6415575,18.8880245 C30.3590764,15.9027505 33.7016148,13.3205827 37.9438831,13.3205827 C42.7965044,13.3205827 46.3764412,16.5652904 46.3764412,20.1903501 C46.3764412,26.1149209 44.4415292,27.6044167 41.8508598,29.9903501 C39.2601904,32.3763356 35.9578366,35.6917439 35.9578366,42.4926965 C35.9423128,43.5935262 36.9405923,44.6060791 38.0415575,44.6060791 C39.1425227,44.6060791 40.1408438,43.5935262 40.1252784,42.4926965 C40.1252784,36.8552937 42.0322269,35.4625346 44.6508598,33.050836 C47.2694927,30.6391374 50.543883,27.2312014 50.543883,20.1903501 C50.543883,13.9199129 44.7140486,9.15314084 37.9438831,9.15314084 Z M55.1020225,44.5763861 L91.860162,44.674321 C93.2430546,44.674321 94.3671387,45.7635861 94.3671387,47.3114782 L94.3671387,75.246466 C94.3671387,76.7942539 93.2368764,77.9162335 91.860162,77.9162335 L84.9252783,77.9162335 C83.7660105,77.9162335 82.7329955,79.0411302 82.8415573,80.1953032 L83.3299294,85.2092567 L75.8741155,78.4371637 C75.4921903,78.1003302 74.9833456,77.9110242 74.4741155,77.9162335 L55.1345807,77.8182986 C53.7469476,77.80788 52.6276039,76.6966316 52.6276039,75.1488437 L52.6276039,47.2464661 C52.6276039,45.6984698 53.7310592,44.5735731 55.1020225,44.5766987 L55.1020225,44.5763861 Z M38.0415575,46.660107 C36.8907497,46.660107 35.9578366,47.5929889 35.9578366,48.743828 C35.9578366,49.894667 36.8907497,50.8275489 38.0415575,50.8275489 C39.1923653,50.8275489 40.1252784,49.894667 40.1252784,48.743828 C40.1252784,47.5929889 39.1923653,46.660107 38.0415575,46.660107 Z M72.4229527,47.7019675 C71.2721136,47.7019675 70.3392318,48.6348494 70.3392318,49.7856884 L70.3392318,66.4554558 C70.3392318,67.6062949 71.2721136,68.5391767 72.4229527,68.5391767 C73.5737918,68.5391767 74.5066736,67.6062949 74.5066736,66.4554558 L74.5066736,49.7856884 C74.5066736,48.6348494 73.5737918,47.7019675 72.4229527,47.7019675 Z M72.4229527,70.6228977 C71.2721449,70.6228977 70.3392318,71.5558837 70.3392318,72.7066186 C70.3392318,73.8574577 71.2721449,74.7903395 72.4229527,74.7903395 C73.5737605,74.7903395 74.5066736,73.8574577 74.5066736,72.7066186 C74.5066736,71.5558837 73.5737605,70.6228977 72.4229527,70.6228977 Z" id="Shape" fill-rule="nonzero"></path>
            </g>
        </g>
    </g>
</svg>