<?xml version="1.0" encoding="UTF-8"?>
<svg width="216px" height="132px" viewBox="0 0 216 132" version="1.1" xmlns="http://www.w3.org/2000/svg" xmlns:xlink="http://www.w3.org/1999/xlink">
    <!-- Generator: Sketch 43.2 (39069) - http://www.bohemiancoding.com/sketch -->
    <title>icn-ttl-reservation</title>
    <desc>Created with Sketch.</desc>
    <defs></defs>
    <g id="Page-1" stroke="none" stroke-width="1" fill="none" fill-rule="evenodd">
        <g id="Artboard-2" transform="translate(-1637.000000, -1063.000000)" fill="#787064">
            <g id="Group" transform="translate(1637.000000, 1063.000000)">
                <path d="M10.2490747,124.309 C10.6170747,124.424 10.9160747,124.7 11.0540747,125.091 C11.2840747,125.758 10.9160747,126.471 10.2490747,126.701 C10.1570747,126.724 9.9730747,126.77 9.7430747,126.77 L9.7200747,126.77 C9.4900747,126.77 9.1450747,126.724 8.8230747,126.517 C8.5240747,126.333 8.2710747,126.034 8.0870747,125.712 C7.7650747,125.045 7.6040747,124.217 7.6040747,122.952 C7.5810747,122.515 7.4890747,122.216 7.3280747,121.963 C7.1900747,121.71 6.9140747,121.48 6.6380747,121.296 C6.1550747,120.974 5.5570747,120.79 5.3500747,120.744 L2.6360747,120.744 L2.6360747,125.735 C2.6360747,126.425 2.0610747,127 1.3480747,127 C0.635074696,127 0.0830746956,126.425 0.0830746956,125.735 L0.0830746956,112.165 C0.0830746956,111.452 0.635074696,110.9 1.3480747,110.9 L5.4650747,110.9 C8.2020747,110.9 10.3870747,113.108 10.3870747,115.845 C10.3870747,117.363 9.6970747,118.697 8.5930747,119.617 C8.8920747,119.847 9.1680747,120.123 9.3980747,120.468 C9.8580747,121.135 10.1570747,121.986 10.1570747,122.952 C10.1340747,123.642 10.2030747,124.079 10.2490747,124.309 Z M5.4650747,118.191 C6.7760747,118.191 7.8340747,117.133 7.8340747,115.845 C7.8340747,114.511 6.7760747,113.453 5.4650747,113.453 L2.6360747,113.453 L2.6360747,118.191 L5.4650747,118.191 Z M22.4357884,127 L22.4587884,126.977 C22.4587884,126.977 22.4587884,127 22.5047884,127 L29.9567884,127 C30.6237884,127 31.2217884,126.425 31.2217884,125.735 C31.2217884,125.022 30.6237884,124.447 29.9567884,124.447 L23.7237884,124.447 L23.7237884,120.215 L29.0827884,120.215 C29.7727884,120.215 30.3477884,119.64 30.3477884,118.927 C30.3477884,118.26 29.7727884,117.662 29.0827884,117.662 L23.7237884,117.662 L23.7237884,113.453 L29.9567884,113.453 C30.6237884,113.453 31.2217884,112.878 31.2217884,112.165 C31.2217884,111.452 30.6237884,110.9 29.9567884,110.9 L22.4357884,110.9 C21.7227884,110.9 21.1707884,111.452 21.1707884,112.165 L21.1707884,125.735 C21.1707884,126.425 21.7227884,127 22.4357884,127 Z M40.8785021,124.677 C42.1895021,125.712 44.2825021,126.954 46.7665021,126.977 C48.3995021,126.977 49.8945021,126.494 51.0215021,125.666 C52.1715021,124.838 52.9995021,123.573 52.9995021,122.101 C52.9995021,121.388 52.7925021,120.698 52.4475021,120.146 C51.9185021,119.295 51.0905021,118.697 50.1475021,118.237 C49.2275021,117.8 48.1465021,117.501 46.9735021,117.271 L46.9275021,117.271 C45.6855021,117.041 44.6505021,116.673 44.0525021,116.259 C43.7535021,116.052 43.5465021,115.845 43.4315021,115.661 C43.3165021,115.477 43.2705021,115.293 43.2705021,115.017 C43.2705021,114.534 43.5235021,114.028 44.1445021,113.568 C44.7655021,113.108 45.6855021,112.786 46.7205021,112.786 C48.1235021,112.786 49.2505021,113.476 50.4235021,114.258 C50.9755021,114.626 51.7115021,114.465 52.0565021,113.913 C52.4245021,113.384 52.2635021,112.648 51.7345021,112.28 C50.5615021,111.521 48.9285021,110.44 46.7205021,110.44 C45.2255021,110.44 43.8225021,110.877 42.7415021,111.659 C41.6835021,112.441 40.9015021,113.637 40.9015021,115.017 C40.9015021,115.707 41.0855021,116.351 41.4305021,116.903 C41.9365021,117.708 42.6955021,118.283 43.5695021,118.697 C44.4435021,119.111 45.4555021,119.387 46.5365021,119.594 L46.5825021,119.594 C47.9395021,119.847 49.0665021,120.238 49.7335021,120.675 C50.0785021,120.905 50.2855021,121.135 50.4235021,121.365 C50.5615021,121.595 50.6305021,121.802 50.6305021,122.101 C50.6305021,122.676 50.3315021,123.251 49.6415021,123.757 C48.9515021,124.263 47.9165021,124.608 46.7665021,124.608 C45.1335021,124.631 43.3855021,123.665 42.3735021,122.837 C41.8675021,122.423 41.1085021,122.492 40.6945021,122.998 C40.3035021,123.504 40.3725021,124.263 40.8785021,124.677 Z M64.1972158,127 L64.2202158,126.977 C64.2202158,126.977 64.2202158,127 64.2662158,127 L71.7182158,127 C72.3852158,127 72.9832158,126.425 72.9832158,125.735 C72.9832158,125.022 72.3852158,124.447 71.7182158,124.447 L65.4852158,124.447 L65.4852158,120.215 L70.8442158,120.215 C71.5342158,120.215 72.1092158,119.64 72.1092158,118.927 C72.1092158,118.26 71.5342158,117.662 70.8442158,117.662 L65.4852158,117.662 L65.4852158,113.453 L71.7182158,113.453 C72.3852158,113.453 72.9832158,112.878 72.9832158,112.165 C72.9832158,111.452 72.3852158,110.9 71.7182158,110.9 L64.1972158,110.9 C63.4842158,110.9 62.9322158,111.452 62.9322158,112.165 L62.9322158,125.735 C62.9322158,126.425 63.4842158,127 64.1972158,127 Z M93.2659295,124.309 C93.6339295,124.424 93.9329295,124.7 94.0709295,125.091 C94.3009295,125.758 93.9329295,126.471 93.2659295,126.701 C93.1739295,126.724 92.9899295,126.77 92.7599295,126.77 L92.7369295,126.77 C92.5069295,126.77 92.1619295,126.724 91.8399295,126.517 C91.5409295,126.333 91.2879295,126.034 91.1039295,125.712 C90.7819295,125.045 90.6209295,124.217 90.6209295,122.952 C90.5979295,122.515 90.5059295,122.216 90.3449295,121.963 C90.2069295,121.71 89.9309295,121.48 89.6549295,121.296 C89.1719295,120.974 88.5739295,120.79 88.3669295,120.744 L85.6529295,120.744 L85.6529295,125.735 C85.6529295,126.425 85.0779295,127 84.3649295,127 C83.6519295,127 83.0999295,126.425 83.0999295,125.735 L83.0999295,112.165 C83.0999295,111.452 83.6519295,110.9 84.3649295,110.9 L88.4819295,110.9 C91.2189295,110.9 93.4039295,113.108 93.4039295,115.845 C93.4039295,117.363 92.7139295,118.697 91.6099295,119.617 C91.9089295,119.847 92.1849295,120.123 92.4149295,120.468 C92.8749295,121.135 93.1739295,121.986 93.1739295,122.952 C93.1509295,123.642 93.2199295,124.079 93.2659295,124.309 Z M88.4819295,118.191 C89.7929295,118.191 90.8509295,117.133 90.8509295,115.845 C90.8509295,114.511 89.7929295,113.453 88.4819295,113.453 L85.6529295,113.453 L85.6529295,118.191 L88.4819295,118.191 Z M108.994643,126.77 C109.063643,126.816 109.155643,126.885 109.201643,126.908 L109.224643,126.908 C109.224643,126.908 109.247643,126.908 109.247643,126.931 C109.293643,126.931 109.385643,126.954 109.431643,126.977 L109.477643,126.977 C109.546643,127 109.638643,127 109.707643,127 C109.776643,127 109.845643,127 109.937643,126.977 L109.983643,126.977 C110.052643,126.954 110.098643,126.931 110.167643,126.931 C110.190643,126.908 110.190643,126.908 110.213643,126.908 C110.282643,126.885 110.351643,126.816 110.397643,126.793 L110.443643,126.77 C110.489643,126.724 110.535643,126.701 110.581643,126.655 C110.604643,126.632 110.604643,126.632 110.627643,126.586 C110.650643,126.54 110.719643,126.494 110.742643,126.448 C110.765643,126.448 110.765643,126.448 110.765643,126.425 C110.811643,126.379 110.834643,126.287 110.857643,126.241 L116.538643,112.809 C116.791643,112.188 116.492643,111.429 115.848643,111.176 C115.227643,110.9 114.468643,111.199 114.192643,111.843 L109.707643,122.492 L105.222643,111.843 C104.946643,111.199 104.210643,110.9 103.589643,111.176 C102.922643,111.429 102.623643,112.188 102.899643,112.809 L108.534643,126.241 C108.580643,126.287 108.626643,126.379 108.649643,126.425 C108.649643,126.448 108.672643,126.448 108.672643,126.448 C108.695643,126.494 108.741643,126.54 108.787643,126.586 C108.787643,126.632 108.810643,126.632 108.810643,126.655 C108.879643,126.701 108.925643,126.724 108.971643,126.77 L108.994643,126.77 Z M133.601357,126.195 L132.474357,123.205 L126.885357,123.205 L125.758357,126.195 C125.551357,126.701 125.068357,127 124.562357,127 C124.401357,127 124.263357,126.977 124.125357,126.931 C123.458357,126.678 123.136357,125.942 123.366357,125.275 L128.449357,111.728 C128.656357,111.222 129.162357,110.9 129.668357,110.923 C130.197357,110.9 130.680357,111.222 130.887357,111.728 L135.970357,125.275 C136.200357,125.942 135.878357,126.678 135.211357,126.931 C135.096357,126.977 134.935357,127 134.774357,127 C134.268357,127 133.785357,126.701 133.601357,126.195 Z M127.805357,120.675 L131.531357,120.675 L129.668357,115.73 L127.805357,120.675 Z M154.321071,112.165 C154.321071,111.452 153.746071,110.9 153.056071,110.9 L143.235071,110.9 C142.522071,110.9 141.970071,111.452 141.970071,112.165 C141.970071,112.855 142.522071,113.453 143.235071,113.453 L146.869071,113.453 L146.869071,125.735 C146.869071,126.448 147.444071,127 148.134071,127 C148.847071,127 149.399071,126.448 149.399071,125.735 L149.399071,113.453 L153.056071,113.453 C153.746071,113.453 154.321071,112.855 154.321071,112.165 Z M164.667784,125.735 C164.667784,126.448 165.219784,127 165.932784,127 C166.622784,127 167.220784,126.448 167.220784,125.735 L167.220784,112.165 C167.220784,111.452 166.622784,110.9 165.932784,110.9 C165.219784,110.9 164.667784,111.452 164.667784,112.165 L164.667784,125.735 Z M185.111498,110.44 C187.227498,110.44 189.251498,111.383 190.608498,112.901 C192.034498,114.419 192.931498,116.443 192.931498,118.72 C192.931498,120.997 192.034498,123.044 190.608498,124.539 C189.251498,126.034 187.227498,127 185.111498,127 C182.903498,127 180.879498,126.034 179.476498,124.539 C178.050498,123.044 177.199498,120.997 177.199498,118.72 C177.199498,116.443 178.050498,114.419 179.476498,112.901 C180.879498,111.383 182.903498,110.44 185.111498,110.44 Z M188.745498,122.722 C189.688498,121.733 190.309498,120.284 190.309498,118.72 C190.309498,117.156 189.688498,115.707 188.745498,114.695 C187.779498,113.66 186.491498,113.062 185.111498,113.062 C183.639498,113.062 182.351498,113.66 181.385498,114.695 C180.419498,115.707 179.821498,117.156 179.821498,118.72 C179.821498,120.284 180.419498,121.733 181.385498,122.722 C182.351498,123.757 183.639498,124.378 185.111498,124.378 C186.491498,124.378 187.779498,123.757 188.745498,122.722 Z M205.785212,116.19 L213.145212,126.402 C213.168212,126.448 213.214212,126.494 213.260212,126.54 C213.490212,126.816 213.835212,127 214.203212,127 C214.893212,127 215.468212,126.425 215.468212,125.735 L215.468212,112.372 C215.468212,111.705 214.893212,111.13 214.203212,111.13 C213.513212,111.13 212.961212,111.705 212.961212,112.372 L212.961212,121.848 L205.532212,111.567 C205.141212,111.015 204.359212,110.9 203.784212,111.291 C203.439212,111.544 203.255212,111.958 203.278212,112.349 L203.278212,125.735 C203.278212,126.425 203.830212,127 204.543212,127 C205.210212,127 205.785212,126.425 205.785212,125.735 L205.785212,116.19 Z" id="RESERVATION"></path>
                <path d="M106.598376,0 C94.8453741,0 85.2032877,9.18717828 85.2032877,21.1607136 C85.2032877,24.0597207 85.9089637,27.7766241 86.8773948,30.3348205 C92.788151,42.6614344 98.7502855,55.0051483 104.689894,67.3325764 C105.032541,68.0667193 105.821697,68.5714693 106.631858,68.5714693 C107.44202,68.5714693 108.231176,68.0667193 108.573823,67.3325764 C114.442058,54.9722554 120.568047,42.7038629 126.386322,30.3348205 C127.361997,27.7707848 128.060429,24.0580064 128.060429,21.1607136 C128.060429,9.18082471 118.351487,0 106.598376,0 Z M106.598376,4.28571415 C116.149712,4.28571415 123.774715,11.4630104 123.774715,21.1607136 C123.774715,23.2262778 123.053794,26.8956634 122.368465,28.7276777 C117.173655,39.6505273 111.884714,50.5651484 106.631858,61.4732552 C101.565281,50.4822198 95.8435159,39.755238 90.8952518,28.7276777 C90.2117393,26.8913884 89.4890018,23.2224421 89.4890018,21.1607136 C89.4890018,11.4566782 97.0471812,4.28571415 106.598376,4.28571415 Z M106.631858,9.64285684 C100.148252,9.64285684 94.8461445,14.944896 94.8461445,21.4285707 C94.8461445,27.9121491 100.148223,33.2142847 106.631858,33.2142847 C113.115597,33.2142847 118.417572,27.9121063 118.417572,21.4285707 C118.417572,14.9449388 113.115569,9.64285684 106.631858,9.64285684 Z M106.631858,13.928571 C110.799363,13.928571 114.131858,17.2611316 114.131858,21.4285707 C114.131858,25.5958813 110.799334,28.9285705 106.631858,28.9285705 C102.464545,28.9285705 99.1318587,25.5958385 99.1318587,21.4285707 C99.1318587,17.2611637 102.464516,13.928571 106.631858,13.928571 Z M68.0604311,42.8571844 C66.849645,42.8571844 66.3293958,43.52297 65.9510561,44.66522 L59.5224847,87.5223615 C59.3301761,88.7388615 60.40023,89.9957543 61.6318596,90.00004 L151.631857,90.00004 C152.863486,90.00004 153.933543,88.7388615 153.741232,87.5223615 L147.312661,44.66522 C147.155161,43.6700772 146.210804,42.8606129 145.203286,42.8571844 L122.736769,42.8571844 L120.660876,47.1428985 L143.361768,47.1428985 L144.634089,55.7143268 L116.877394,55.7143268 C117.448787,54.8245054 115.115676,58.668791 114.600608,59.7321838 L135.393018,85.7143259 L103.384091,85.7143259 L90.0581982,69.0402192 L99.3662336,61.1718623 L97.4577516,57.2209696 L87.3796269,65.7254336 L72.5135559,47.1428985 L92.602841,47.1428985 L90.5269482,42.8571844 L68.0604311,42.8571844 Z M69.4331989,50.1562913 L97.8930194,85.7143259 L64.1095383,85.7143259 L69.4331989,50.1562913 Z M120.292572,60.000041 L145.303732,60.000041 L146.910875,70.7143263 L128.864001,70.7143263 L120.292572,60.000041 Z M132.312661,75.0000405 L147.547036,75.0000405 L149.154178,85.7143259 L140.884089,85.7143259 L132.312661,75.0000405 Z" id="Shape" fill-rule="nonzero"></path>
            </g>
        </g>
    </g>
</svg>