<?xml version="1.0" encoding="UTF-8"?>
<svg width="216px" height="132px" viewBox="0 0 216 132" version="1.1" xmlns="http://www.w3.org/2000/svg" xmlns:xlink="http://www.w3.org/1999/xlink">
    <!-- Generator: Sketch 43.2 (39069) - http://www.bohemiancoding.com/sketch -->
    <title>icn-ttl-faq copy</title>
    <desc>Created with Sketch.</desc>
    <defs></defs>
    <g id="Page-1" stroke="none" stroke-width="1" fill="none" fill-rule="evenodd">
        <g id="Artboard-2" transform="translate(-2199.000000, -1063.000000)" fill="#787064">
            <path d="M2231.1235,1188.735 C2231.1235,1189.448 2231.6755,1190 2232.3885,1190 C2233.0785,1190 2233.6765,1189.448 2233.6765,1188.735 L2233.6765,1175.165 C2233.6765,1174.452 2233.0785,1173.9 2232.3885,1173.9 C2231.6755,1173.9 2231.1235,1174.452 2231.1235,1175.165 L2231.1235,1188.735 Z M2248.5985,1178.5 C2247.7015,1178.5 2246.8505,1178.776 2246.1605,1179.213 C2245.9535,1178.776 2245.5165,1178.5 2245.0335,1178.5 C2244.3435,1178.5 2243.8145,1179.052 2243.8145,1179.719 L2243.8145,1188.781 C2243.8145,1189.448 2244.3435,1190 2245.0335,1190 C2245.6315,1190 2246.1375,1189.563 2246.2525,1189.011 C2246.2985,1188.919 2246.2985,1188.85 2246.2985,1188.781 L2246.2985,1183.284 C2246.2985,1181.996 2247.3105,1180.961 2248.5985,1180.961 C2249.9095,1180.961 2250.9905,1181.996 2250.9905,1183.284 L2250.9905,1188.781 C2250.9905,1189.448 2251.5655,1190 2252.2095,1190 C2252.8765,1190 2253.4055,1189.448 2253.4055,1188.781 L2253.4055,1183.284 C2253.4055,1180.685 2251.2665,1178.5 2248.5985,1178.5 Z M2263.6125,1188.413 C2264.5325,1189.149 2265.9125,1189.977 2267.7065,1190 C2268.8335,1190 2269.8685,1189.655 2270.6965,1189.08 C2271.5245,1188.482 2272.1455,1187.539 2272.1455,1186.412 C2272.1455,1185.883 2271.9845,1185.354 2271.7085,1184.894 C2271.3175,1184.25 2270.6965,1183.813 2270.0755,1183.537 C2269.4085,1183.215 2268.6955,1183.008 2267.9365,1182.87 L2267.9135,1182.87 L2267.8905,1182.847 C2267.1085,1182.709 2266.5105,1182.502 2266.2115,1182.295 C2266.0505,1182.203 2265.9815,1182.111 2265.9585,1182.065 C2265.9125,1181.996 2265.9125,1181.973 2265.9125,1181.881 C2265.9125,1181.766 2265.9815,1181.559 2266.2805,1181.352 C2266.5795,1181.122 2267.0855,1180.938 2267.6605,1180.938 C2268.3965,1180.938 2269.0405,1181.306 2269.7765,1181.789 C2270.3515,1182.18 2271.1105,1182.019 2271.4785,1181.467 C2271.8235,1180.892 2271.6625,1180.133 2271.1105,1179.765 C2270.3745,1179.259 2269.2475,1178.5 2267.6605,1178.5 C2266.6025,1178.5 2265.6365,1178.799 2264.8315,1179.351 C2264.0725,1179.926 2263.4745,1180.823 2263.4745,1181.881 C2263.4745,1182.41 2263.6125,1182.916 2263.8655,1183.33 C2264.2795,1183.951 2264.8315,1184.365 2265.4525,1184.664 C2266.0505,1184.94 2266.7405,1185.124 2267.4535,1185.262 L2267.4765,1185.262 C2268.3045,1185.423 2268.9945,1185.676 2269.3165,1185.906 C2269.5005,1186.021 2269.5925,1186.113 2269.6155,1186.182 C2269.6615,1186.251 2269.6845,1186.297 2269.6845,1186.412 C2269.6845,1186.596 2269.5925,1186.826 2269.2705,1187.102 C2268.9025,1187.332 2268.3275,1187.539 2267.7065,1187.539 C2266.8095,1187.562 2265.7745,1187.033 2265.1765,1186.527 C2264.6705,1186.09 2263.8655,1186.159 2263.4515,1186.711 C2263.0375,1187.217 2263.1065,1187.999 2263.6125,1188.413 Z M2285.6415,1178.5 L2285.0665,1178.5 L2285.0665,1175.165 C2285.0665,1174.452 2284.5145,1173.9 2283.8015,1173.9 C2283.0885,1173.9 2282.5135,1174.452 2282.5135,1175.165 L2282.5135,1178.5 L2281.8465,1178.5 C2281.1335,1178.5 2280.5815,1179.052 2280.5815,1179.765 C2280.5815,1180.455 2281.1335,1181.03 2281.8465,1181.03 L2282.5135,1181.03 L2282.5135,1187.447 C2282.5135,1188.85 2283.6635,1190 2285.0665,1190 C2285.7795,1190 2286.3315,1189.448 2286.3315,1188.735 C2286.3315,1188.022 2285.7795,1187.447 2285.0665,1187.447 L2285.0665,1181.03 L2285.6415,1181.03 C2286.3315,1181.03 2286.9295,1180.455 2286.9295,1179.765 C2286.9295,1179.052 2286.3315,1178.5 2285.6415,1178.5 Z M2306.0835,1179.742 L2306.0835,1188.781 C2306.0835,1189.448 2305.5315,1190 2304.8645,1190 C2304.2665,1190 2303.8065,1189.563 2303.6685,1189.011 C2302.7945,1189.632 2301.7595,1190 2300.6095,1190 C2299.0455,1190 2297.6885,1189.356 2296.6995,1188.321 C2295.7105,1187.263 2295.1355,1185.837 2295.1355,1184.273 C2295.1355,1182.686 2295.7105,1181.26 2296.6995,1180.225 C2297.6885,1179.167 2299.0455,1178.5 2300.6095,1178.5 C2301.7595,1178.5 2302.7945,1178.891 2303.6685,1179.512 C2303.8065,1178.937 2304.2665,1178.5 2304.8645,1178.5 C2305.5315,1178.5 2306.0835,1179.052 2306.0835,1179.742 Z M2302.7485,1186.642 C2303.3005,1186.044 2303.6455,1185.216 2303.6455,1184.273 C2303.6455,1183.307 2303.3005,1182.479 2302.7485,1181.904 C2302.1965,1181.283 2301.4145,1180.961 2300.6095,1180.961 C2299.7815,1180.961 2298.9995,1181.283 2298.4705,1181.904 C2297.9185,1182.479 2297.5965,1183.307 2297.5965,1184.273 C2297.5965,1185.216 2297.9185,1186.044 2298.4705,1186.642 C2298.9995,1187.217 2299.7815,1187.539 2300.6095,1187.539 C2301.4145,1187.539 2302.1965,1187.217 2302.7485,1186.642 Z M2325.7675,1188.597 C2325.7675,1191.61 2323.3065,1194.117 2320.2475,1194.117 C2319.3965,1194.117 2318.5455,1193.91 2317.8325,1193.542 C2317.2345,1193.266 2316.9585,1192.507 2317.2805,1191.886 C2317.5795,1191.265 2318.2925,1191.035 2318.9365,1191.311 C2319.3275,1191.518 2319.7645,1191.633 2320.2475,1191.633 C2321.7425,1191.633 2322.9615,1190.575 2323.2605,1189.172 C2322.4325,1189.747 2321.3745,1190.092 2320.2475,1190.092 C2318.7295,1190.092 2317.3265,1189.425 2316.3375,1188.344 C2315.3485,1187.332 2314.7275,1185.906 2314.7275,1184.296 C2314.7275,1182.709 2315.3485,1181.283 2316.3375,1180.202 C2317.3265,1179.167 2318.7295,1178.5 2320.2475,1178.5 C2321.4435,1178.5 2322.5015,1178.868 2323.3295,1179.466 C2323.4445,1178.914 2323.9505,1178.5 2324.5485,1178.5 C2325.2385,1178.5 2325.7675,1179.052 2325.7675,1179.719 L2325.7675,1188.597 Z M2322.4325,1186.665 C2322.9385,1186.136 2323.3065,1185.262 2323.3065,1184.296 C2323.3065,1183.376 2322.9385,1182.502 2322.4325,1181.95 C2321.8345,1181.306 2321.1215,1180.961 2320.2475,1180.961 C2319.4425,1180.961 2318.6835,1181.306 2318.1315,1181.95 C2317.5795,1182.502 2317.2115,1183.376 2317.2115,1184.296 C2317.2115,1185.262 2317.5795,1186.136 2318.1315,1186.665 C2318.6835,1187.286 2319.4425,1187.608 2320.2475,1187.608 C2321.1215,1187.608 2321.8345,1187.286 2322.4325,1186.665 Z M2341.6215,1178.523 C2340.4715,1178.5 2339.4825,1178.914 2338.7235,1179.42 C2338.5625,1179.535 2338.3785,1179.719 2338.2405,1179.88 L2338.2405,1179.719 C2338.2405,1179.052 2337.6655,1178.523 2336.9755,1178.523 C2336.3085,1178.523 2335.7565,1179.052 2335.7565,1179.719 L2335.7565,1188.781 C2335.7565,1189.448 2336.3085,1190 2336.9755,1190 C2337.6655,1190 2338.2405,1189.448 2338.2405,1188.781 L2338.2405,1184.411 C2338.3555,1184.089 2338.6315,1183.215 2339.1835,1182.479 C2339.4595,1182.042 2339.8045,1181.651 2340.2415,1181.375 C2340.6325,1181.076 2341.0925,1180.938 2341.6215,1180.938 C2342.3115,1180.938 2342.8405,1180.363 2342.8405,1179.719 C2342.8405,1179.052 2342.3115,1178.523 2341.6215,1178.523 Z M2361.0975,1179.742 L2361.0975,1188.781 C2361.0975,1189.448 2360.5455,1190 2359.8785,1190 C2359.2805,1190 2358.8205,1189.563 2358.6825,1189.011 C2357.8085,1189.632 2356.7735,1190 2355.6235,1190 C2354.0595,1190 2352.7025,1189.356 2351.7135,1188.321 C2350.7245,1187.263 2350.1495,1185.837 2350.1495,1184.273 C2350.1495,1182.686 2350.7245,1181.26 2351.7135,1180.225 C2352.7025,1179.167 2354.0595,1178.5 2355.6235,1178.5 C2356.7735,1178.5 2357.8085,1178.891 2358.6825,1179.512 C2358.8205,1178.937 2359.2805,1178.5 2359.8785,1178.5 C2360.5455,1178.5 2361.0975,1179.052 2361.0975,1179.742 Z M2357.7625,1186.642 C2358.3145,1186.044 2358.6595,1185.216 2358.6595,1184.273 C2358.6595,1183.307 2358.3145,1182.479 2357.7625,1181.904 C2357.2105,1181.283 2356.4285,1180.961 2355.6235,1180.961 C2354.7955,1180.961 2354.0135,1181.283 2353.4845,1181.904 C2352.9325,1182.479 2352.6105,1183.307 2352.6105,1184.273 C2352.6105,1185.216 2352.9325,1186.044 2353.4845,1186.642 C2354.0135,1187.217 2354.7955,1187.539 2355.6235,1187.539 C2356.4285,1187.539 2357.2105,1187.217 2357.7625,1186.642 Z M2382.7015,1180.961 C2383.9665,1180.961 2385.0245,1182.019 2385.0245,1183.33 L2385.0245,1188.781 C2385.0245,1189.448 2385.5995,1190 2386.2665,1190 C2386.9335,1190 2387.4855,1189.448 2387.4855,1188.781 L2387.4855,1183.33 C2387.4855,1180.662 2385.3465,1178.5 2382.7015,1178.5 C2381.2525,1178.5 2379.9415,1179.098 2379.0905,1180.087 C2378.2165,1179.098 2376.9285,1178.5 2375.4795,1178.5 C2374.6055,1178.5 2373.7545,1178.753 2373.0185,1179.19 C2372.8345,1178.753 2372.3975,1178.5 2371.9145,1178.5 C2371.2475,1178.5 2370.6955,1179.029 2370.6955,1179.742 L2370.6955,1188.781 C2370.6955,1189.379 2371.1325,1189.839 2371.6845,1189.977 C2371.7535,1189.977 2371.8225,1190 2371.9145,1190 C2372.3975,1190 2372.8575,1189.678 2373.0645,1189.264 L2373.0645,1189.149 C2373.1105,1189.103 2373.1105,1189.057 2373.1335,1189.011 L2373.1335,1188.942 C2373.1335,1188.896 2373.1565,1188.827 2373.1565,1188.781 L2373.1565,1183.33 C2373.1565,1182.019 2374.2145,1180.961 2375.4795,1180.961 C2376.7675,1180.961 2377.8255,1181.996 2377.8485,1183.261 L2377.8485,1188.781 C2377.8485,1189.448 2378.4465,1190 2379.0905,1190 C2379.7575,1190 2380.3095,1189.448 2380.3095,1188.781 L2380.3095,1183.261 C2380.3555,1181.996 2381.3905,1180.961 2382.7015,1180.961 Z" id="Instagram"></path>
            <path d="M2291.43243,1084 C2280.16341,1084 2271,1093.16346 2271,1104.43243 L2271,1135.5676 C2271,1146.83657 2280.16341,1156.00003 2291.43243,1156.00003 L2322.56756,1156.00003 C2333.83658,1156.00003 2342.99999,1146.83657 2342.99999,1135.5676 L2342.99999,1104.43243 C2342.99999,1093.16346 2333.83658,1084 2322.56756,1084 L2291.43243,1084 Z M2291.43243,1089.83784 L2322.56756,1089.83784 C2330.7034,1089.83784 2337.16216,1096.29663 2337.16216,1104.43243 L2337.16216,1135.5676 C2337.16216,1143.7034 2330.7034,1150.16219 2322.56756,1150.16219 L2291.43243,1150.16219 C2283.29659,1150.16219 2276.83784,1143.7034 2276.83784,1135.5676 L2276.83784,1104.43243 C2276.83784,1096.29663 2283.29659,1089.83784 2291.43243,1089.83784 Z M2326.45945,1095.67568 C2324.30996,1095.67568 2322.56756,1097.41808 2322.56756,1099.56757 C2322.56756,1101.71696 2324.30996,1103.45946 2326.45945,1103.45946 C2328.60885,1103.45946 2330.35135,1101.71696 2330.35135,1099.56757 C2330.35135,1097.41808 2328.60885,1095.67568 2326.45945,1095.67568 Z M2307,1100.54054 C2296.28736,1100.54054 2287.54054,1109.28747 2287.54054,1120.00003 C2287.54054,1130.71256 2296.28736,1139.45949 2307,1139.45949 C2317.71262,1139.45949 2326.45945,1130.71256 2326.45945,1120.00003 C2326.45945,1109.28747 2317.71262,1100.54054 2307,1100.54054 Z M2307,1106.37838 C2314.5576,1106.37838 2320.62162,1112.44253 2320.62162,1120.00003 C2320.62162,1127.5575 2314.5576,1133.62165 2307,1133.62165 C2299.44238,1133.62165 2293.37838,1127.5575 2293.37838,1120.00003 C2293.37838,1112.44253 2299.44238,1106.37838 2307,1106.37838 Z" id="Shape" fill-rule="nonzero"></path>
        </g>
    </g>
</svg>