<?xml version="1.0" encoding="UTF-8"?>
<svg width="216px" height="132px" viewBox="0 0 216 132" version="1.1" xmlns="http://www.w3.org/2000/svg" xmlns:xlink="http://www.w3.org/1999/xlink">
    <!-- Generator: Sketch 43.2 (39069) - http://www.bohemiancoding.com/sketch -->
    <title>icn-ttl-menu</title>
    <desc>Created with Sketch.</desc>
    <defs></defs>
    <g id="Page-1" stroke="none" stroke-width="1" fill="none" fill-rule="evenodd">
        <g id="Artboard-2" transform="translate(-2257.000000, -1063.000000)">
            <g id="noun_1087190_cc" transform="translate(2336.000000, 1081.000000)" fill-rule="nonzero" fill="#7A7266">
                <path d="M6.125,1 C2.7664674,1 0,3.766467 0,7.125 L0,62.875 C0,66.233533 2.7664674,69 6.125,69 L61.875,69 C65.233533,69 68,66.233533 68,62.875 L68,44.84375 L87.40625,25.46875 C88.1766317,24.6895134 88.1766317,23.4354866 87.40625,22.65625 L78.34375,13.59375 C77.9201199,13.159696 77.3224224,12.9413065 76.71875,13 C76.2668607,13.0569422 75.8479373,13.2664038 75.53125,13.59375 L68,21.15625 L68,7.125 C68,3.766467 65.233533,1 61.875,1 C61.8125344,0.997068995 61.7499656,0.997068995 61.6875,1 C60.9728668,1.03335519 60.3303308,1.44547818 60.0019854,2.08109002 C59.67364,2.71670186 59.7093826,3.47921114 60.0957462,4.081321 C60.4821098,4.68343086 61.1603802,5.03364104 61.875,5 C63.091687,5 64,5.908313 64,7.125 L64,25.15625 L46.59375,42.59375 C46.2177184,42.9655795 46.004238,43.471191 46,44 L46,53 C46.0001104,54.1045238 46.8954762,54.9998896 48,55 L57,55 C57.528809,54.995762 58.0344205,54.7822816 58.40625,54.40625 L64,48.8125 L64,62.875 C64,64.091687 63.091687,65 61.875,65 L6.125,65 C4.908313,65 4,64.091687 4,62.875 L4,7.125 C4,5.908313 4.908313,5 6.125,5 L54,5 C54.7212701,5.010198 55.3921584,4.63124626 55.7557695,4.00825221 C56.1193806,3.38525817 56.1193806,2.61474183 55.7557695,1.99174779 C55.3921584,1.36875374 54.7212701,0.989801995 54,1 L6.125,1 Z M13.8125,15 C13.0978668,15.0333552 12.4553308,15.4454782 12.1269854,16.08109 C11.79864,16.7167019 11.8343826,17.4792111 12.2207462,18.081321 C12.6071098,18.6834309 13.2853802,19.033641 14,19 L54,19 C54.7212701,19.010198 55.3921584,18.6312463 55.7557695,18.0082522 C56.1193806,17.3852582 56.1193806,16.6147418 55.7557695,15.9917478 C55.3921584,15.3687537 54.7212701,14.989802 54,15 L14,15 C13.9375344,14.997069 13.8749656,14.997069 13.8125,15 Z M76.9375,17.8125 L83.1875,24.0625 L79.53125,27.71875 L73.28125,21.46875 L76.9375,17.8125 Z M70.46875,24.28125 L76.71875,30.53125 L56.1875,51 L50,51 L50,44.8125 L70.46875,24.28125 Z M13.8125,27 C13.0978668,27.0333552 12.4553308,27.4454782 12.1269854,28.08109 C11.79864,28.7167019 11.8343826,29.4792111 12.2207462,30.081321 C12.6071098,30.6834309 13.2853802,31.033641 14,31 L54,31 C54.7212701,31.010198 55.3921584,30.6312463 55.7557695,30.0082522 C56.1193806,29.3852582 56.1193806,28.6147418 55.7557695,27.9917478 C55.3921584,27.3687537 54.7212701,26.989802 54,27 L14,27 C13.9375344,26.997069 13.8749656,26.997069 13.8125,27 Z M13.8125,39 C13.0978668,39.0333552 12.4553308,39.4454782 12.1269854,40.08109 C11.79864,40.7167019 11.8343826,41.4792111 12.2207462,42.081321 C12.6071098,42.6834309 13.2853802,43.033641 14,43 L40.15625,43 C40.8775201,43.010198 41.5484084,42.6312463 41.9120195,42.0082522 C42.2756306,41.3852582 42.2756306,40.6147418 41.9120195,39.9917478 C41.5484084,39.3687537 40.8775201,38.989802 40.15625,39 L14,39 C13.9375344,38.997069 13.8749656,38.997069 13.8125,39 Z M13.8125,51 C13.0978668,51.0333552 12.4553308,51.4454782 12.1269854,52.08109 C11.79864,52.7167019 11.8343826,53.4792111 12.2207462,54.081321 C12.6071098,54.6834309 13.2853802,55.033641 14,55 L40,55 C40.7212701,55.010198 41.3921584,54.6312463 41.7557695,54.0082522 C42.1193806,53.3852582 42.1193806,52.6147418 41.7557695,51.9917478 C41.3921584,51.3687537 40.7212701,50.989802 40,51 L14,51 C13.9375344,50.997069 13.8749656,50.997069 13.8125,51 Z" id="Shape"></path>
            </g>
            <path d="M2332.39407,1192 C2331.70407,1192 2331.12907,1191.425 2331.12907,1190.735 L2331.12907,1177.165 C2331.12907,1176.452 2331.70407,1175.9 2332.39407,1175.9 L2335.66007,1175.9 C2338.07507,1175.9 2340.03007,1177.855 2340.03007,1180.27 C2340.03007,1181.259 2339.70807,1182.156 2339.15607,1182.892 C2340.53607,1183.766 2341.47907,1185.307 2341.47907,1187.055 C2341.47907,1189.792 2339.27107,1192 2336.55707,1192 L2332.48607,1192 C2332.46307,1192 2332.46307,1191.977 2332.46307,1191.977 C2332.41707,1191.977 2332.41707,1192 2332.39407,1192 Z M2333.68207,1178.453 L2333.68207,1182.133 L2335.66007,1182.133 C2336.67207,1182.133 2337.47707,1181.282 2337.47707,1180.27 C2337.47707,1179.258 2336.67207,1178.453 2335.66007,1178.453 L2333.68207,1178.453 Z M2333.68207,1184.686 L2333.68207,1189.447 L2336.55707,1189.447 C2337.86807,1189.424 2338.92607,1188.389 2338.92607,1187.055 C2338.92607,1185.744 2337.86807,1184.709 2336.55707,1184.686 L2333.68207,1184.686 Z M2352.44679,1192 L2359.96779,1192 C2360.63479,1192 2361.23279,1191.425 2361.23279,1190.735 C2361.23279,1190.022 2360.63479,1189.447 2359.96779,1189.447 L2353.73479,1189.447 L2353.73479,1177.165 C2353.73479,1176.475 2353.15979,1175.9 2352.44679,1175.9 C2351.73379,1175.9 2351.18179,1176.475 2351.18179,1177.165 L2351.18179,1190.735 C2351.18179,1191.425 2351.73379,1192 2352.44679,1192 Z M2376.8005,1175.44 C2378.9165,1175.44 2380.9405,1176.383 2382.2975,1177.901 C2383.7235,1179.419 2384.6205,1181.443 2384.6205,1183.72 C2384.6205,1185.997 2383.7235,1188.044 2382.2975,1189.539 C2380.9405,1191.034 2378.9165,1192 2376.8005,1192 C2374.5925,1192 2372.5685,1191.034 2371.1655,1189.539 C2369.7395,1188.044 2368.8885,1185.997 2368.8885,1183.72 C2368.8885,1181.443 2369.7395,1179.419 2371.1655,1177.901 C2372.5685,1176.383 2374.5925,1175.44 2376.8005,1175.44 Z M2380.4345,1187.722 C2381.3775,1186.733 2381.9985,1185.284 2381.9985,1183.72 C2381.9985,1182.156 2381.3775,1180.707 2380.4345,1179.695 C2379.4685,1178.66 2378.1805,1178.062 2376.8005,1178.062 C2375.3285,1178.062 2374.0405,1178.66 2373.0745,1179.695 C2372.1085,1180.707 2371.5105,1182.156 2371.5105,1183.72 C2371.5105,1185.284 2372.1085,1186.733 2373.0745,1187.722 C2374.0405,1188.757 2375.3285,1189.378 2376.8005,1189.378 C2378.1805,1189.378 2379.4685,1188.757 2380.4345,1187.722 Z M2403.31621,1192 C2405.27121,1192 2407.08821,1191.333 2408.53721,1190.206 C2408.76721,1190.045 2408.90521,1189.861 2408.97421,1189.654 L2408.97421,1189.631 C2408.99721,1189.585 2408.99721,1189.562 2409.02021,1189.516 C2409.04321,1189.378 2409.08921,1189.286 2409.08921,1189.125 L2409.08921,1184.042 C2409.08921,1183.306 2408.49121,1182.754 2407.75521,1182.754 L2403.17821,1182.754 C2402.46521,1182.754 2401.86721,1183.306 2401.86721,1184.042 C2401.86721,1184.755 2402.46521,1185.353 2403.17821,1185.353 L2406.46721,1185.353 L2406.46721,1188.504 C2405.54721,1189.033 2404.46621,1189.378 2403.31621,1189.378 C2401.66021,1189.378 2400.21121,1188.757 2399.17621,1187.699 C2398.09521,1186.664 2397.45121,1185.261 2397.45121,1183.743 C2397.45121,1182.179 2398.09521,1180.776 2399.17621,1179.741 C2400.21121,1178.683 2401.66021,1178.062 2403.31621,1178.062 C2404.69621,1178.062 2405.96121,1178.545 2406.95021,1179.304 C2407.52521,1179.764 2408.37621,1179.649 2408.81321,1179.097 C2409.25021,1178.522 2409.15821,1177.671 2408.56021,1177.234 C2407.13421,1176.107 2405.27121,1175.44 2403.31621,1175.44 C2398.64721,1175.44 2394.82921,1179.12 2394.82921,1183.743 C2394.82921,1188.343 2398.64721,1192 2403.31621,1192 Z" id="BLOG" fill="#787064"></path>
        </g>
    </g>
</svg>