<?xml version="1.0" encoding="UTF-8"?>
<svg width="70px" height="73px" viewBox="0 0 70 73" version="1.1" xmlns="http://www.w3.org/2000/svg" xmlns:xlink="http://www.w3.org/1999/xlink">
    <!-- Generator: Sketch 43.2 (39069) - http://www.bohemiancoding.com/sketch -->
    <title>instagram</title>
    <desc>Created with Sketch.</desc>
    <defs></defs>
    <g id="Page-1" stroke="none" stroke-width="1" fill="none" fill-rule="evenodd">
        <g id="E" transform="translate(-435.000000, -7679.000000)">
            <g id="stylist" transform="translate(31.000000, 6284.000000)">
                <g id="Group-14" transform="translate(214.000000, 1395.000000)">
                    <g id="instagram" transform="translate(190.000000, 0.000000)">
                        <rect id="Rectangle" x="0" y="0" width="69.7560976" height="73"></rect>
                        <ellipse id="Oval" stroke="#787064" stroke-width="2" cx="34.8780488" cy="36.5" rx="33.8780488" ry="35.5"></ellipse>
                        <path d="M44.603888,19.9090909 L25.1522096,19.9090909 C21.7741723,19.9090909 19.0243902,22.7847965 19.0243902,26.3218753 L19.0243902,46.6781247 C19.0243902,50.2152035 21.7741723,53.0909091 25.1522096,53.0909091 L44.603888,53.0909091 C47.9819253,53.0909091 50.7317073,50.2152035 50.7317073,46.6781247 L50.7317073,26.3218753 C50.7317073,22.7847965 47.9819253,19.9090909 44.603888,19.9090909 L44.603888,19.9090909 Z M46.3618842,23.7349108 L47.0628456,23.7310089 L47.0628456,29.3556081 L41.7049652,29.3731666 L41.6863226,23.7485675 L46.3618842,23.7349108 L46.3618842,23.7349108 Z M30.3534922,33.0936351 C31.3676491,31.6226161 33.015654,30.658845 34.8780488,30.658845 C36.7404435,30.658845 38.3884485,31.6226161 39.4026054,33.0936351 C40.0644173,34.0535042 40.4596402,35.2279783 40.4596402,36.5 C40.4596402,39.7190734 37.9559404,42.339204 34.8780488,42.339204 C31.8020214,42.339204 29.2983216,39.7190734 29.2983216,36.5 C29.2983216,35.2279783 29.6935445,34.0535042 30.3534922,33.0936351 L30.3534922,33.0936351 Z M47.6426302,46.6781247 C47.6426302,48.432032 46.2798568,49.858179 44.603888,49.858179 L25.1522096,49.858179 C23.4762407,49.858179 22.1134674,48.432032 22.1134674,46.6781247 L22.1134674,33.0936351 L26.8486853,33.0936351 C26.4385483,34.14715 26.2092444,35.2962617 26.2092444,36.5 C26.2092444,41.5022449 30.0980887,45.573885 34.8780488,45.573885 C39.6598731,45.573885 43.5487174,41.5022449 43.5487174,36.5 C43.5487174,35.2962617 43.315685,34.14715 42.9092766,33.0936351 L47.6426302,33.0936351 L47.6426302,46.6781247 L47.6426302,46.6781247 Z" id="Shape" fill="#787064"></path>
                    </g>
                </g>
            </g>
        </g>
    </g>
</svg>