<?xml version="1.0" encoding="UTF-8"?>
<svg width="559px" height="155px" viewBox="0 0 559 155" version="1.1" xmlns="http://www.w3.org/2000/svg" xmlns:xlink="http://www.w3.org/1999/xlink">
    <!-- Generator: Sketch 43.2 (39069) - http://www.bohemiancoding.com/sketch -->
    <title>Group 17</title>
    <desc>Created with Sketch.</desc>
    <defs></defs>
    <g id="Page-1" stroke="none" stroke-width="1" fill="none" fill-rule="evenodd">
        <g id="E" transform="translate(-91.000000, -530.000000)">
            <g id="header" transform="translate(-32.000000, -35.000000)">
                <g id="Group-16" transform="translate(11.000000, 0.000000)">
                    <g id="Group-17" transform="translate(112.000000, 565.000000)">
                        <path d="M0,0 L559,0 L559,149 L0,149 L0,0 Z M167,149 L392,149 L392,146 L167,146 L167,149 Z M3,146 L556,146 L556,3 L3,3 L3,146 Z" id="Combined-Shape" fill="#000000"></path>
                        <path d="M67.8610794,93.2740705 C68.0298982,93.8227313 67.9771431,94.3291799 67.7028127,94.7934314 C67.4284823,95.2576828 66.9958908,95.5742132 66.4050253,95.7430319 C65.8563645,95.9118506 65.3499159,95.8590955 64.8856645,95.5847651 C64.421413,95.3104347 64.1048826,94.8989453 63.9360639,94.3502844 C63.7672452,93.7172143 63.577327,93.0208475 63.3663036,92.2611633 C63.1552802,91.5858884 62.933709,90.8051136 62.7015832,89.9188153 C62.4694575,89.0325171 62.2056822,88.040722 61.9102495,86.9434003 L49.6287493,86.9434003 C49.2911119,88.040722 49.0167856,89.0325171 48.8057622,89.9188153 C48.5947388,90.8051136 48.3837186,91.5858884 48.1726952,92.2611633 C47.9616718,93.0208475 47.7717536,93.7172143 47.6029349,94.3502844 C47.4341161,94.8989453 47.1175858,95.3104347 46.6533343,95.5847651 C46.1890829,95.8590955 45.6615323,95.9118506 45.0706668,95.7430319 C44.522006,95.5742132 44.1105165,95.2576828 43.8361861,94.7934314 C43.5618557,94.3291799 43.5091006,93.8227313 43.6779194,93.2740705 L53.8069916,56.5561835 C53.9336057,56.091932 54.1762789,55.7226466 54.5350187,55.4483162 C54.8937585,55.1739858 55.3052479,55.0368226 55.7694994,55.0368226 C56.2337509,55.0368226 56.6452403,55.1739858 57.0039801,55.4483162 C57.3627199,55.7226466 57.6053931,56.091932 57.7320072,56.5561835 L67.8610794,93.2740705 Z M60.7707288,82.8917714 C60.348682,81.3301983 59.9055396,79.7158935 59.4412881,78.0488087 C58.9770366,76.3817239 58.5233431,74.7463171 58.080194,73.1425393 C57.6370449,71.5387615 57.2150044,70.0088649 56.81406,68.5528035 C56.4131155,67.096742 56.0649321,65.7989676 55.7694994,64.6594413 C55.431862,65.7989676 55.0731276,67.096742 54.6932855,68.5528035 C54.3134434,70.0088649 53.9019539,71.5387615 53.4588048,73.1425393 C53.0156557,74.7463171 52.5619622,76.3817239 52.0977107,78.0488087 C51.6334592,79.7158935 51.1903167,81.3301983 50.76827,82.8917714 L60.7707288,82.8917714 Z M100.373593,95.8063386 C99.7827279,95.8063386 99.2973814,95.6164204 98.9175393,95.2365783 C98.5376972,94.8567362 98.347779,94.3713896 98.347779,93.7805241 L98.347779,57.0626371 C98.347779,56.5983856 98.4954931,56.1763452 98.7909259,55.796503 C99.0863586,55.4166609 99.466195,55.1845387 99.9304465,55.1001293 C100.394698,55.01572 100.83784,55.068475 101.259887,55.2583961 C101.681934,55.4483171 101.998464,55.7542965 102.209488,56.1763433 C103.306809,58.5398053 104.383013,60.8188238 105.43813,63.0134671 C106.324428,64.9126776 107.231815,66.8646147 108.160318,68.869337 C109.088821,70.8740592 109.869596,72.530568 110.502666,73.8389131 C110.798098,73.2058429 111.146282,72.4567211 111.547226,71.5915251 C111.948171,70.7263292 112.370211,69.8189422 112.81336,68.869337 C113.256509,67.9197317 113.710203,66.9384876 114.174454,65.9255753 C114.638706,64.912663 115.10295,63.94197 115.567202,63.0134671 C116.622319,60.8188238 117.698522,58.5398053 118.795844,56.1763433 C119.006867,55.7542965 119.323397,55.4483171 119.745444,55.2583961 C120.167491,55.068475 120.610633,55.01572 121.074885,55.1001293 C121.539136,55.1845387 121.918973,55.4166609 122.214406,55.796503 C122.509838,56.1763452 122.657552,56.5983856 122.657552,57.0626371 L122.657552,93.7805241 C122.657552,94.3713896 122.457083,94.8567362 122.056139,95.2365783 C121.655194,95.6164204 121.180399,95.8063386 120.631738,95.8063386 C120.040872,95.8063386 119.555526,95.6164204 119.175684,95.2365783 C118.795842,94.8567362 118.605924,94.3713896 118.605924,93.7805241 L118.605924,66.1154954 C117.846239,67.7192732 117.097117,69.312476 116.358536,70.8951514 L114.364375,75.1683538 C113.646895,76.6455176 112.97163,78.0804551 112.33856,79.4732095 C111.916513,80.2328937 111.304555,80.6127302 110.502666,80.6127302 C109.616367,80.6127302 109.004409,80.2328937 108.666771,79.4732095 C108.033701,78.0804551 107.358436,76.6455176 106.640957,75.1683538 C106.050091,73.9022134 105.374827,72.4778269 104.615142,70.8951514 C103.855458,69.312476 103.116887,67.7192732 102.399408,66.1154954 L102.399408,93.7805241 C102.399408,94.3713896 102.198939,94.8567362 101.797994,95.2365783 C101.39705,95.6164204 100.922254,95.8063386 100.373593,95.8063386 Z M157.892255,95.8063386 C157.343594,95.8063386 156.868798,95.6164204 156.467854,95.2365783 C156.066909,94.8567362 155.86644,94.3713896 155.86644,93.7805241 L155.86644,57.0626371 C155.86644,56.4717716 156.066909,55.9864251 156.467854,55.6065829 C156.868798,55.2267408 157.343594,55.0368226 157.892255,55.0368226 C158.48312,55.0368226 158.968467,55.2267408 159.348309,55.6065829 C159.728151,55.9864251 159.918069,56.4717716 159.918069,57.0626371 L159.918069,93.7805241 C159.918069,94.3713896 159.728151,94.8567362 159.348309,95.2365783 C158.968467,95.6164204 158.48312,95.8063386 157.892255,95.8063386 Z M245.834309,55.2900494 C246.425174,55.2900494 246.910521,55.4799676 247.290363,55.8598097 C247.670205,56.2396519 247.860123,56.7249984 247.860123,57.3158639 C247.860123,57.9067294 247.670205,58.3920759 247.290363,58.771918 C246.910521,59.1517601 246.425174,59.3416783 245.834309,59.3416783 L239.630252,59.3416783 L239.630252,93.7805241 C239.630252,94.3713896 239.440334,94.8567362 239.060492,95.2365783 C238.680649,95.6164204 238.195303,95.8063386 237.604437,95.8063386 C237.055777,95.8063386 236.580981,95.6164204 236.180037,95.2365783 C235.779092,94.8567362 235.578623,94.3713896 235.578623,93.7805241 L235.578623,59.3416783 L229.374566,59.3416783 C228.825905,59.3416783 228.35111,59.1517601 227.950165,58.771918 C227.549221,58.3920759 227.348752,57.9067294 227.348752,57.3158639 C227.348752,56.7249984 227.549221,56.2396519 227.950165,55.8598097 C228.35111,55.4799676 228.825905,55.2900494 229.374566,55.2900494 L245.834309,55.2900494 Z M296.832379,93.2740705 C297.001198,93.8227313 296.948443,94.3291799 296.674113,94.7934314 C296.399782,95.2576828 295.967191,95.5742132 295.376325,95.7430319 C294.827665,95.9118506 294.321216,95.8590955 293.856965,95.5847651 C293.392713,95.3104347 293.076183,94.8989453 292.907364,94.3502844 C292.738545,93.7172143 292.548627,93.0208475 292.337604,92.2611633 C292.12658,91.5858884 291.905009,90.8051136 291.672883,89.9188153 C291.440758,89.0325171 291.176982,88.040722 290.88155,86.9434003 L278.600049,86.9434003 C278.262412,88.040722 277.988086,89.0325171 277.777062,89.9188153 C277.566039,90.8051136 277.355019,91.5858884 277.143995,92.2611633 C276.932972,93.0208475 276.743054,93.7172143 276.574235,94.3502844 C276.405416,94.8989453 276.088886,95.3104347 275.624634,95.5847651 C275.160383,95.8590955 274.632832,95.9118506 274.041967,95.7430319 C273.493306,95.5742132 273.081817,95.2576828 272.807486,94.7934314 C272.533156,94.3291799 272.480401,93.8227313 272.649219,93.2740705 L282.778292,56.5561835 C282.904906,56.091932 283.147579,55.7226466 283.506319,55.4483162 C283.865059,55.1739858 284.276548,55.0368226 284.740799,55.0368226 C285.205051,55.0368226 285.61654,55.1739858 285.97528,55.4483162 C286.33402,55.7226466 286.576693,56.091932 286.703307,56.5561835 L296.832379,93.2740705 Z M289.742029,82.8917714 C289.319982,81.3301983 288.87684,79.7158935 288.412588,78.0488087 C287.948337,76.3817239 287.494643,74.7463171 287.051494,73.1425393 C286.608345,71.5387615 286.186304,70.0088649 285.78536,68.5528035 C285.384416,67.096742 285.036232,65.7989676 284.740799,64.6594413 C284.403162,65.7989676 284.044428,67.096742 283.664586,68.5528035 C283.284743,70.0088649 282.873254,71.5387615 282.430105,73.1425393 C281.986956,74.7463171 281.533262,76.3817239 281.069011,78.0488087 C280.604759,79.7158935 280.161617,81.3301983 279.73957,82.8917714 L289.742029,82.8917714 Z M347.513917,95.7430319 C347.049665,95.8696459 346.606523,95.8274419 346.184476,95.6164185 C345.762429,95.4053951 345.445899,95.0888647 345.234876,94.666818 C343.462279,91.0372156 341.731913,87.4709737 340.043726,83.9679853 C339.326247,82.4908216 338.577125,80.9503739 337.796338,79.3465961 C337.015552,77.7428183 336.245328,76.1496156 335.485644,74.5669401 C334.725959,72.9842647 333.99794,71.454368 333.301562,69.9772043 C332.605185,68.5000405 331.961573,67.149511 331.370708,65.9255753 L331.370708,93.7805241 C331.370708,94.3713896 331.18079,94.8567362 330.800948,95.2365783 C330.421105,95.6164204 329.935759,95.8063386 329.344893,95.8063386 C328.754028,95.8063386 328.268681,95.6164204 327.888839,95.2365783 C327.508997,94.8567362 327.319079,94.3713896 327.319079,93.7805241 L327.319079,57.0626371 C327.319079,56.5983856 327.466793,56.1763452 327.762226,55.796503 C328.057659,55.4166609 328.437495,55.1845387 328.901747,55.1001293 C329.365998,55.01572 329.809141,55.068475 330.231187,55.2583961 C330.653234,55.4483171 330.969764,55.7542965 331.180788,56.1763433 C332.91118,59.8059456 334.620444,63.3721875 336.308631,66.8751759 C337.02611,68.3523396 337.775232,69.8927873 338.556019,71.4965651 C339.336805,73.1003429 340.107029,74.6935456 340.866713,76.2762211 C341.626397,77.8588965 342.364968,79.3887932 343.082448,80.865957 C343.799927,82.3431207 344.45409,83.6936502 345.044956,84.9175859 L345.044956,57.0626371 C345.044956,56.4717716 345.234874,55.9864251 345.614716,55.6065829 C345.994558,55.2267408 346.479904,55.0368226 347.07077,55.0368226 C347.661635,55.0368226 348.146982,55.2267408 348.526824,55.6065829 C348.906666,55.9864251 349.096584,56.4717716 349.096584,57.0626371 L349.096584,93.7805241 C349.096584,94.2447756 348.94887,94.6668161 348.653438,95.0466582 C348.358005,95.4265003 347.978168,95.6586225 347.513917,95.7430319 Z M403.766444,93.2740705 C403.935263,93.8227313 403.882508,94.3291799 403.608177,94.7934314 C403.333847,95.2576828 402.901255,95.5742132 402.31039,95.7430319 C401.761729,95.9118506 401.255281,95.8590955 400.791029,95.5847651 C400.326778,95.3104347 400.010247,94.8989453 399.841429,94.3502844 C399.67261,93.7172143 399.482692,93.0208475 399.271668,92.2611633 C399.060645,91.5858884 398.839074,90.8051136 398.606948,89.9188153 C398.374822,89.0325171 398.111047,88.040722 397.815614,86.9434003 L385.534114,86.9434003 C385.196476,88.040722 384.92215,89.0325171 384.711127,89.9188153 C384.500103,90.8051136 384.289083,91.5858884 384.07806,92.2611633 C383.867036,93.0208475 383.677118,93.7172143 383.508299,94.3502844 C383.339481,94.8989453 383.02295,95.3104347 382.558699,95.5847651 C382.094447,95.8590955 381.566897,95.9118506 380.976031,95.7430319 C380.427371,95.5742132 380.015881,95.2576828 379.741551,94.7934314 C379.46722,94.3291799 379.414465,93.8227313 379.583284,93.2740705 L389.712356,56.5561835 C389.83897,56.091932 390.081644,55.7226466 390.440383,55.4483162 C390.799123,55.1739858 391.210613,55.0368226 391.674864,55.0368226 C392.139115,55.0368226 392.550605,55.1739858 392.909345,55.4483162 C393.268084,55.7226466 393.510758,56.091932 393.637372,56.5561835 L403.766444,93.2740705 Z M396.676093,82.8917714 C396.254047,81.3301983 395.810904,79.7158935 395.346653,78.0488087 C394.882401,76.3817239 394.428708,74.7463171 393.985559,73.1425393 C393.542409,71.5387615 393.120369,70.0088649 392.719425,68.5528035 C392.31848,67.096742 391.970297,65.7989676 391.674864,64.6594413 C391.337227,65.7989676 390.978492,67.096742 390.59865,68.5528035 C390.218808,70.0088649 389.807319,71.5387615 389.364169,73.1425393 C388.92102,74.7463171 388.467327,76.3817239 388.003075,78.0488087 C387.538824,79.7158935 387.095681,81.3301983 386.673635,82.8917714 L396.676093,82.8917714 Z M454.574595,92.8942303 C454.827823,93.4006865 454.859476,93.917686 454.669555,94.4452445 C454.479634,94.972803 454.13145,95.3631904 453.624994,95.6164185 C453.118538,95.8696466 452.601539,95.9012996 452.07398,95.7113785 C451.546422,95.5214575 451.177136,95.1732741 450.966113,94.666818 L441.849948,75.8647275 L438.304772,80.8026503 L438.304772,93.7805241 C438.304772,94.3713896 438.114854,94.8567362 437.735012,95.2365783 C437.35517,95.6164204 436.869824,95.8063386 436.278958,95.8063386 C435.730297,95.8063386 435.255502,95.6164204 434.854557,95.2365783 C434.453613,94.8567362 434.253144,94.3713896 434.253144,93.7805241 L434.253144,57.0626371 C434.253144,56.4717716 434.453613,55.9864251 434.854557,55.6065829 C435.255502,55.2267408 435.730297,55.0368226 436.278958,55.0368226 C436.869824,55.0368226 437.35517,55.2267408 437.735012,55.6065829 C438.114854,55.9864251 438.304772,56.4717716 438.304772,57.0626371 L438.304772,73.8389131 L451.092726,55.8598097 C451.430364,55.3955583 451.873506,55.121232 452.422167,55.0368226 C452.970828,54.9524133 453.477276,55.0790254 453.941528,55.4166628 C454.405779,55.7543003 454.680106,56.1974427 454.764515,56.7461036 C454.848924,57.2947644 454.722312,57.801213 454.384675,58.2654644 L444.572136,72.0663254 L454.574595,92.8942303 Z M506.965413,93.2740705 C507.134232,93.8227313 507.081477,94.3291799 506.807146,94.7934314 C506.532816,95.2576828 506.100225,95.5742132 505.509359,95.7430319 C504.960698,95.9118506 504.45425,95.8590955 503.989998,95.5847651 C503.525747,95.3104347 503.209216,94.8989453 503.040398,94.3502844 C502.871579,93.7172143 502.681661,93.0208475 502.470637,92.2611633 C502.259614,91.5858884 502.038043,90.8051136 501.805917,89.9188153 C501.573791,89.0325171 501.310016,88.040722 501.014583,86.9434003 L488.733083,86.9434003 C488.395446,88.040722 488.121119,89.0325171 487.910096,89.9188153 C487.699073,90.8051136 487.488052,91.5858884 487.277029,92.2611633 C487.066006,93.0208475 486.876087,93.7172143 486.707269,94.3502844 C486.53845,94.8989453 486.22192,95.3104347 485.757668,95.5847651 C485.293417,95.8590955 484.765866,95.9118506 484.175001,95.7430319 C483.62634,95.5742132 483.21485,95.2576828 482.94052,94.7934314 C482.666189,94.3291799 482.613434,93.8227313 482.782253,93.2740705 L492.911325,56.5561835 C493.037939,56.091932 493.280613,55.7226466 493.639352,55.4483162 C493.998092,55.1739858 494.409582,55.0368226 494.873833,55.0368226 C495.338085,55.0368226 495.749574,55.1739858 496.108314,55.4483162 C496.467054,55.7226466 496.709727,56.091932 496.836341,56.5561835 L506.965413,93.2740705 Z M499.875063,82.8917714 C499.453016,81.3301983 499.009873,79.7158935 498.545622,78.0488087 C498.08137,76.3817239 497.627677,74.7463171 497.184528,73.1425393 C496.741379,71.5387615 496.319338,70.0088649 495.918394,68.5528035 C495.517449,67.096742 495.169266,65.7989676 494.873833,64.6594413 C494.536196,65.7989676 494.177461,67.096742 493.797619,68.5528035 C493.417777,70.0088649 493.006288,71.5387615 492.563139,73.1425393 C492.119989,74.7463171 491.666296,76.3817239 491.202044,78.0488087 C490.737793,79.7158935 490.29465,81.3301983 489.872604,82.8917714 L499.875063,82.8917714 Z" id="AMI-TANAKA" fill="#262626"></path>
                        <path d="M218.7,138.8 C218.7,138.566665 218.779166,138.375001 218.9375,138.225 C219.095834,138.074999 219.283332,138 219.5,138 C219.733335,138 219.924999,138.074999 220.075,138.225 C220.225001,138.375001 220.3,138.566665 220.3,138.8 L220.3,153.3 C220.3,153.533335 220.225001,153.724999 220.075,153.875 C219.924999,154.025001 219.733335,154.1 219.5,154.1 C219.283332,154.1 219.095834,154.025001 218.9375,153.875 C218.779166,153.724999 218.7,153.533335 218.7,153.3 L218.7,146.6 L214.3,146.6 L214.3,153.3 C214.3,153.533335 214.225001,153.724999 214.075,153.875 C213.924999,154.025001 213.733335,154.1 213.5,154.1 C213.283332,154.1 213.095834,154.025001 212.9375,153.875 C212.779166,153.724999 212.7,153.533335 212.7,153.3 L212.7,138.8 C212.7,138.566665 212.779166,138.375001 212.9375,138.225 C213.095834,138.074999 213.283332,138 213.5,138 C213.733335,138 213.924999,138.074999 214.075,138.225 C214.225001,138.375001 214.3,138.566665 214.3,138.8 L214.3,145 L218.7,145 L218.7,138.8 Z M235.761956,153.1 C235.828623,153.316668 235.80779,153.516666 235.699456,153.7 C235.591122,153.883334 235.420291,154.008333 235.186956,154.075 C234.970289,154.141667 234.770291,154.120834 234.586956,154.0125 C234.403622,153.904166 234.278623,153.741668 234.211956,153.525 C234.145289,153.274999 234.07029,153.000002 233.986956,152.7 C233.903623,152.433332 233.816123,152.125002 233.724456,151.775 C233.632789,151.424998 233.528624,151.033336 233.411956,150.6 L228.561956,150.6 C228.428622,151.033336 228.32029,151.424998 228.236956,151.775 C228.153623,152.125002 228.07029,152.433332 227.986956,152.7 C227.903623,153.000002 227.828623,153.274999 227.761956,153.525 C227.695289,153.741668 227.570291,153.904166 227.386956,154.0125 C227.203622,154.120834 226.995291,154.141667 226.761956,154.075 C226.545289,154.008333 226.38279,153.883334 226.274456,153.7 C226.166122,153.516666 226.145289,153.316668 226.211956,153.1 L230.211956,138.6 C230.261957,138.416666 230.357789,138.270834 230.499456,138.1625 C230.641124,138.054166 230.803622,138 230.986956,138 C231.170291,138 231.332789,138.054166 231.474456,138.1625 C231.616124,138.270834 231.711956,138.416666 231.761956,138.6 L235.761956,153.1 Z M232.961956,149 C232.795289,148.38333 232.620291,147.745837 232.436956,147.0875 C232.253622,146.429163 232.074457,145.783337 231.899456,145.15 C231.724455,144.516664 231.55779,143.912503 231.399456,143.3375 C231.241122,142.762497 231.103624,142.250002 230.986956,141.8 C230.853622,142.250002 230.711957,142.762497 230.561956,143.3375 C230.411956,143.912503 230.249457,144.516664 230.074456,145.15 C229.899455,145.783337 229.720291,146.429163 229.536956,147.0875 C229.353622,147.745837 229.178624,148.38333 229.011956,149 L232.961956,149 Z M242.473913,154.1 C242.257245,154.1 242.069747,154.025001 241.911413,153.875 C241.753078,153.724999 241.673913,153.533335 241.673913,153.3 L241.673913,138.8 C241.673913,138.566665 241.753078,138.375001 241.911413,138.225 C242.069747,138.074999 242.257245,138 242.473913,138 C242.707247,138 242.898912,138.074999 243.048913,138.225 C243.198913,138.375001 243.273913,138.566665 243.273913,138.8 L243.273913,153.3 C243.273913,153.533335 243.198913,153.724999 243.048913,153.875 C242.898912,154.025001 242.707247,154.1 242.473913,154.1 Z M257.860869,143.3 C257.860869,144.100004 257.644204,144.816664 257.210869,145.45 C256.777533,146.083336 256.210872,146.541665 255.510869,146.825 L257.810869,153.025 C257.894203,153.225001 257.890036,153.424999 257.798369,153.625 C257.706702,153.825001 257.552537,153.966666 257.335869,154.05 C257.135868,154.133334 256.93587,154.129167 256.735869,154.0375 C256.535868,153.945833 256.394203,153.791668 256.310869,153.575 L253.910869,147.1 L251.860869,147.1 L251.860869,153.3 C251.860869,153.533335 251.78587,153.724999 251.635869,153.875 C251.485868,154.025001 251.294203,154.1 251.060869,154.1 C250.844201,154.1 250.656703,154.025001 250.498369,153.875 C250.340035,153.724999 250.260869,153.533335 250.260869,153.3 L250.260869,138.9 C250.260869,138.666666 250.340035,138.475001 250.498369,138.325 C250.656703,138.174999 250.844201,138.1 251.060869,138.1 L254.060869,138.1 C254.577538,138.1 255.0692,138.199999 255.535869,138.4 C256.002538,138.600001 256.4067,138.870832 256.748369,139.2125 C257.090037,139.554168 257.360868,139.958331 257.560869,140.425 C257.76087,140.891669 257.860869,141.383331 257.860869,141.9 L257.860869,143.3 Z M254.060869,145.5 C254.677539,145.5 255.198367,145.287502 255.623369,144.8625 C256.048371,144.437498 256.260869,143.91667 256.260869,143.3 L256.260869,141.9 C256.260869,141.299997 256.048371,140.783336 255.623369,140.35 C255.198367,139.916665 254.677539,139.7 254.060869,139.7 L251.860869,139.7 L251.860869,145.5 L254.060869,145.5 Z M276.934781,152.025 C277.501451,151.608331 277.809781,151.050004 277.859781,150.35 C277.893115,150.016665 277.851449,149.691668 277.734781,149.375 C277.618114,149.058332 277.443116,148.783335 277.209781,148.55 L273.209781,144.45 C272.826446,144.066665 272.543116,143.616669 272.359781,143.1 C272.176447,142.583331 272.109781,142.058336 272.159781,141.525 C272.193115,140.974997 272.343113,140.462502 272.609781,139.9875 C272.876449,139.512498 273.226446,139.108335 273.659781,138.775 C274.093117,138.441665 274.576445,138.212501 275.109781,138.0875 C275.643117,137.962499 276.176445,137.958333 276.709781,138.075 C277.243117,138.191667 277.726446,138.404165 278.159781,138.7125 C278.593117,139.020835 278.951447,139.416664 279.234781,139.9 C279.351449,140.083334 279.380615,140.283332 279.322281,140.5 C279.263948,140.716668 279.134782,140.883333 278.934781,141 C278.751447,141.116667 278.551449,141.141667 278.334781,141.075 C278.118114,141.008333 277.959782,140.883334 277.859781,140.7 C277.526446,140.133331 277.034785,139.783334 276.384781,139.65 C275.734778,139.516666 275.143117,139.649998 274.609781,140.05 C274.093112,140.433335 273.809782,140.95833 273.759781,141.625 C273.709781,142.275003 273.909779,142.841664 274.359781,143.325 L278.359781,147.45 C278.743117,147.850002 279.030614,148.312497 279.222281,148.8375 C279.413949,149.362503 279.493115,149.908331 279.459781,150.475 C279.409781,151.04167 279.251449,151.570831 278.984781,152.0625 C278.718113,152.554169 278.359784,152.966665 277.909781,153.3 C277.459779,153.633335 276.959784,153.866666 276.409781,154 C275.859779,154.133334 275.309784,154.141667 274.759781,154.025 C274.209779,153.908333 273.705617,153.687502 273.247281,153.3625 C272.788946,153.037498 272.418116,152.633336 272.134781,152.15 C272.034781,151.949999 272.013948,151.745834 272.072281,151.5375 C272.130615,151.329166 272.251447,151.166667 272.434781,151.05 C272.618116,150.933333 272.818114,150.904166 273.034781,150.9625 C273.251449,151.020834 273.418114,151.149999 273.534781,151.35 C273.701449,151.633335 273.918113,151.870832 274.184781,152.0625 C274.451449,152.254168 274.751446,152.383333 275.084781,152.45 C275.768118,152.583334 276.384779,152.441669 276.934781,152.025 Z M292.071738,138.1 C292.305072,138.1 292.496737,138.174999 292.646738,138.325 C292.796738,138.475001 292.871738,138.666666 292.871738,138.9 C292.871738,139.133335 292.796738,139.324999 292.646738,139.475 C292.496737,139.625001 292.305072,139.7 292.071738,139.7 L289.621738,139.7 L289.621738,153.3 C289.621738,153.533335 289.546738,153.724999 289.396738,153.875 C289.246737,154.025001 289.055072,154.1 288.821738,154.1 C288.60507,154.1 288.417572,154.025001 288.259238,153.875 C288.100903,153.724999 288.021738,153.533335 288.021738,153.3 L288.021738,139.7 L285.571738,139.7 C285.35507,139.7 285.167572,139.625001 285.009238,139.475 C284.850903,139.324999 284.771738,139.133335 284.771738,138.9 C284.771738,138.666666 284.850903,138.475001 285.009238,138.325 C285.167572,138.174999 285.35507,138.1 285.571738,138.1 L292.071738,138.1 Z M301.383694,146 L297.958694,139.15 C297.858693,138.966666 297.846193,138.766668 297.921194,138.55 C297.996194,138.333332 298.133693,138.175001 298.333694,138.075 C298.517028,137.991666 298.717026,137.983333 298.933694,138.05 C299.150362,138.116667 299.308693,138.249999 299.408694,138.45 L302.183694,144 L304.958694,138.45 C305.058694,138.249999 305.212859,138.116667 305.421194,138.05 C305.629528,137.983333 305.833693,137.991666 306.033694,138.075 C306.233695,138.175001 306.371193,138.333332 306.446194,138.55 C306.521194,138.766668 306.508694,138.966666 306.408694,139.15 L302.983694,146 L302.983694,153.3 C302.983694,153.533335 302.908695,153.724999 302.758694,153.875 C302.608693,154.025001 302.417028,154.1 302.183694,154.1 C301.950359,154.1 301.758695,154.025001 301.608694,153.875 C301.458693,153.724999 301.383694,153.533335 301.383694,153.3 L301.383694,146 Z M313.29565,154 C313.062316,154 312.870651,153.925001 312.72065,153.775 C312.570649,153.624999 312.49565,153.433335 312.49565,153.2 L312.49565,138.8 C312.49565,138.566665 312.570649,138.375001 312.72065,138.225 C312.870651,138.074999 313.062316,138 313.29565,138 C313.512318,138 313.699816,138.074999 313.85815,138.225 C314.016484,138.375001 314.09565,138.566665 314.09565,138.8 L314.09565,152.4 L318.29565,152.4 C318.512318,152.4 318.699816,152.474999 318.85815,152.625 C319.016484,152.775001 319.09565,152.966665 319.09565,153.2 C319.09565,153.433335 319.016484,153.624999 318.85815,153.775 C318.699816,153.925001 318.512318,154 318.29565,154 L313.29565,154 Z M325.582606,154.1 C325.365939,154.1 325.17844,154.025001 325.020106,153.875 C324.861772,153.724999 324.782606,153.533335 324.782606,153.3 L324.782606,138.8 C324.782606,138.566665 324.861772,138.375001 325.020106,138.225 C325.17844,138.074999 325.365939,138 325.582606,138 C325.815941,138 326.007606,138.074999 326.157606,138.225 C326.307607,138.375001 326.382606,138.566665 326.382606,138.8 L326.382606,153.3 C326.382606,153.533335 326.307607,153.724999 326.157606,153.875 C326.007606,154.025001 325.815941,154.1 325.582606,154.1 Z M337.669563,152.025 C338.236232,151.608331 338.544562,151.050004 338.594563,150.35 C338.627896,150.016665 338.58623,149.691668 338.469563,149.375 C338.352895,149.058332 338.177897,148.783335 337.944563,148.55 L333.944563,144.45 C333.561227,144.066665 333.277897,143.616669 333.094563,143.1 C332.911228,142.583331 332.844562,142.058336 332.894563,141.525 C332.927896,140.974997 333.077895,140.462502 333.344563,139.9875 C333.611231,139.512498 333.961227,139.108335 334.394563,138.775 C334.827898,138.441665 335.311227,138.212501 335.844563,138.0875 C336.377899,137.962499 336.911227,137.958333 337.444563,138.075 C337.977899,138.191667 338.461227,138.404165 338.894563,138.7125 C339.327898,139.020835 339.686228,139.416664 339.969563,139.9 C340.08623,140.083334 340.115396,140.283332 340.057063,140.5 C339.998729,140.716668 339.869564,140.883333 339.669563,141 C339.486228,141.116667 339.28623,141.141667 339.069563,141.075 C338.852895,141.008333 338.694563,140.883334 338.594563,140.7 C338.261228,140.133331 337.769566,139.783334 337.119563,139.65 C336.469559,139.516666 335.877899,139.649998 335.344563,140.05 C334.827893,140.433335 334.544563,140.95833 334.494563,141.625 C334.444562,142.275003 334.64456,142.841664 335.094563,143.325 L339.094563,147.45 C339.477898,147.850002 339.765395,148.312497 339.957063,148.8375 C340.14873,149.362503 340.227896,149.908331 340.194563,150.475 C340.144562,151.04167 339.986231,151.570831 339.719563,152.0625 C339.452895,152.554169 339.094565,152.966665 338.644563,153.3 C338.19456,153.633335 337.694565,153.866666 337.144563,154 C336.59456,154.133334 336.044565,154.141667 335.494563,154.025 C334.94456,153.908333 334.440398,153.687502 333.982063,153.3625 C333.523727,153.037498 333.152897,152.633336 332.869563,152.15 C332.769562,151.949999 332.748729,151.745834 332.807063,151.5375 C332.865396,151.329166 332.986228,151.166667 333.169563,151.05 C333.352897,150.933333 333.552895,150.904166 333.769563,150.9625 C333.98623,151.020834 334.152895,151.149999 334.269563,151.35 C334.43623,151.633335 334.652895,151.870832 334.919563,152.0625 C335.186231,152.254168 335.486228,152.383333 335.819563,152.45 C336.502899,152.583334 337.11956,152.441669 337.669563,152.025 Z M352.806519,138.1 C353.039853,138.1 353.231518,138.174999 353.381519,138.325 C353.53152,138.475001 353.606519,138.666666 353.606519,138.9 C353.606519,139.133335 353.53152,139.324999 353.381519,139.475 C353.231518,139.625001 353.039853,139.7 352.806519,139.7 L350.356519,139.7 L350.356519,153.3 C350.356519,153.533335 350.28152,153.724999 350.131519,153.875 C349.981518,154.025001 349.789853,154.1 349.556519,154.1 C349.339851,154.1 349.152353,154.025001 348.994019,153.875 C348.835685,153.724999 348.756519,153.533335 348.756519,153.3 L348.756519,139.7 L346.306519,139.7 C346.089851,139.7 345.902353,139.625001 345.744019,139.475 C345.585685,139.324999 345.506519,139.133335 345.506519,138.9 C345.506519,138.666666 345.585685,138.475001 345.744019,138.325 C345.902353,138.174999 346.089851,138.1 346.306519,138.1 L352.806519,138.1 Z" id="HAIR-STYLIST" fill="#000000"></path>
                    </g>
                </g>
            </g>
        </g>
    </g>
</svg>