<?xml version="1.0" encoding="UTF-8"?>
<svg width="180px" height="42px" viewBox="0 0 180 42" version="1.1" xmlns="http://www.w3.org/2000/svg" xmlns:xlink="http://www.w3.org/1999/xlink">
    <!-- Generator: Sketch 43.2 (39069) - http://www.bohemiancoding.com/sketch -->
    <title>Group 9</title>
    <desc>Created with Sketch.</desc>
    <defs></defs>
    <g id="Page-1" stroke="none" stroke-width="1" fill="none" fill-rule="evenodd">
        <g id="E" transform="translate(-281.000000, -1004.000000)" fill="#B3B3B3">
            <g id="header" transform="translate(-32.000000, -35.000000)">
                <g id="Group-16" transform="translate(32.000000, 36.000000)">
                    <g id="Group-9" transform="translate(281.000000, 1003.000000)">
                        <path d="M0.359394799,11.761 C1.4423948,12.616 3.1713948,13.642 5.2233948,13.661 C6.5723948,13.661 7.8073948,13.262 8.7383948,12.578 C9.6883948,11.894 10.3723948,10.849 10.3723948,9.633 C10.3723948,9.044 10.2013948,8.474 9.9163948,8.018 C9.4793948,7.315 8.7953948,6.821 8.0163948,6.441 C7.2563948,6.08 6.3633948,5.833 5.3943948,5.643 L5.3563948,5.643 C4.3303948,5.453 3.4753948,5.149 2.9813948,4.807 C2.7343948,4.636 2.5633948,4.465 2.4683948,4.313 C2.3733948,4.161 2.3353948,4.009 2.3353948,3.781 C2.3353948,3.382 2.5443948,2.964 3.0573948,2.584 C3.5703948,2.204 4.3303948,1.938 5.1853948,1.938 C6.3443948,1.938 7.2753948,2.508 8.2443948,3.154 C8.7003948,3.458 9.3083948,3.325 9.5933948,2.869 C9.8973948,2.432 9.7643948,1.824 9.3273948,1.52 C8.3583948,0.893 7.0093948,0 5.1853948,0 C3.9503948,0 2.7913948,0.361 1.8983948,1.007 C1.0243948,1.653 0.378394799,2.641 0.378394799,3.781 C0.378394799,4.351 0.530394799,4.883 0.815394799,5.339 C1.2333948,6.004 1.8603948,6.479 2.5823948,6.821 C3.3043948,7.163 4.1403948,7.391 5.0333948,7.562 L5.0713948,7.562 C6.1923948,7.771 7.1233948,8.094 7.6743948,8.455 C7.9593948,8.645 8.1303948,8.835 8.2443948,9.025 C8.3583948,9.215 8.4153948,9.386 8.4153948,9.633 C8.4153948,10.108 8.1683948,10.583 7.5983948,11.001 C7.0283948,11.419 6.1733948,11.704 5.2233948,11.704 C3.8743948,11.723 2.4303948,10.925 1.5943948,10.241 C1.1763948,9.899 0.549394799,9.956 0.207394799,10.374 C-0.115605201,10.792 -0.058605201,11.419 0.359394799,11.761 Z M23.3362411,13.68 C25.0082411,13.68 26.5282411,13.129 27.7252411,12.198 C28.1812411,11.837 28.2572411,11.153 27.9152411,10.678 C27.5352411,10.222 26.8322411,10.146 26.3952411,10.469 C25.5402411,11.153 24.5142411,11.514 23.3362411,11.514 C22.0252411,11.514 20.8092411,10.982 19.9162411,10.146 C19.0612411,9.31 18.5292411,8.132 18.5292411,6.84 C18.5292411,5.548 19.0612411,4.408 19.9162411,3.534 C20.8092411,2.698 22.0252411,2.166 23.3362411,2.166 C24.5142411,2.166 25.5592411,2.527 26.3952411,3.211 C26.8322411,3.553 27.5352411,3.477 27.9152411,3.002 C28.2572411,2.527 28.1812411,1.862 27.7252411,1.482 C26.5282411,0.551 25.0082411,0 23.3362411,0 C19.5362411,0.019 16.3822411,3.078 16.3632411,6.84 C16.3822411,10.621 19.5362411,13.68 23.3362411,13.68 Z M43.3870873,11.457 C43.6910873,11.552 43.9380873,11.78 44.0520873,12.103 C44.2420873,12.654 43.9380873,13.243 43.3870873,13.433 C43.3110873,13.452 43.1590873,13.49 42.9690873,13.49 L42.9500873,13.49 C42.7600873,13.49 42.4750873,13.452 42.2090873,13.281 C41.9620873,13.129 41.7530873,12.882 41.6010873,12.616 C41.3350873,12.065 41.2020873,11.381 41.2020873,10.336 C41.1830873,9.975 41.1070873,9.728 40.9740873,9.519 C40.8600873,9.31 40.6320873,9.12 40.4040873,8.968 C40.0050873,8.702 39.5110873,8.55 39.3400873,8.512 L37.0980873,8.512 L37.0980873,12.635 C37.0980873,13.205 36.6230873,13.68 36.0340873,13.68 C35.4450873,13.68 34.9890873,13.205 34.9890873,12.635 L34.9890873,1.425 C34.9890873,0.836 35.4450873,0.38 36.0340873,0.38 L39.4350873,0.38 C41.6960873,0.38 43.5010873,2.204 43.5010873,4.465 C43.5010873,5.719 42.9310873,6.821 42.0190873,7.581 C42.2660873,7.771 42.4940873,7.999 42.6840873,8.284 C43.0640873,8.835 43.3110873,9.538 43.3110873,10.336 C43.2920873,10.906 43.3490873,11.267 43.3870873,11.457 Z M39.4350873,6.403 C40.5180873,6.403 41.3920873,5.529 41.3920873,4.465 C41.3920873,3.363 40.5180873,2.489 39.4350873,2.489 L37.0980873,2.489 L37.0980873,6.403 L39.4350873,6.403 Z M56.4079336,0 C58.1559336,0 59.8279336,0.779 60.9489336,2.033 C62.1269336,3.287 62.8679336,4.959 62.8679336,6.84 C62.8679336,8.721 62.1269336,10.412 60.9489336,11.647 C59.8279336,12.882 58.1559336,13.68 56.4079336,13.68 C54.5839336,13.68 52.9119336,12.882 51.7529336,11.647 C50.5749336,10.412 49.8719336,8.721 49.8719336,6.84 C49.8719336,4.959 50.5749336,3.287 51.7529336,2.033 C52.9119336,0.779 54.5839336,0 56.4079336,0 Z M59.4099336,10.146 C60.1889336,9.329 60.7019336,8.132 60.7019336,6.84 C60.7019336,5.548 60.1889336,4.351 59.4099336,3.515 C58.6119336,2.66 57.5479336,2.166 56.4079336,2.166 C55.1919336,2.166 54.1279336,2.66 53.3299336,3.515 C52.5319336,4.351 52.0379336,5.548 52.0379336,6.84 C52.0379336,8.132 52.5319336,9.329 53.3299336,10.146 C54.1279336,11.001 55.1919336,11.514 56.4079336,11.514 C57.5479336,11.514 58.6119336,11.001 59.4099336,10.146 Z M71.2147799,13.68 L77.4277799,13.68 C77.9787799,13.68 78.4727799,13.205 78.4727799,12.635 C78.4727799,12.046 77.9787799,11.571 77.4277799,11.571 L72.2787799,11.571 L72.2787799,1.425 C72.2787799,0.855 71.8037799,0.38 71.2147799,0.38 C70.6257799,0.38 70.1697799,0.855 70.1697799,1.425 L70.1697799,12.635 C70.1697799,13.205 70.6257799,13.68 71.2147799,13.68 Z M85.5656261,13.68 L91.7786261,13.68 C92.3296261,13.68 92.8236261,13.205 92.8236261,12.635 C92.8236261,12.046 92.3296261,11.571 91.7786261,11.571 L86.6296261,11.571 L86.6296261,1.425 C86.6296261,0.855 86.1546261,0.38 85.5656261,0.38 C84.9766261,0.38 84.5206261,0.855 84.5206261,1.425 L84.5206261,12.635 C84.5206261,13.205 84.9766261,13.68 85.5656261,13.68 Z M109.270319,13.68 C108.681319,13.68 108.225319,13.205 108.225319,12.635 L108.225319,1.425 C108.225319,0.836 108.681319,0.38 109.270319,0.38 L111.512319,0.38 C115.179319,0.38 118.143319,3.363 118.143319,7.011 C118.143319,10.697 115.179319,13.68 111.512319,13.68 L109.270319,13.68 Z M110.334319,2.489 L110.334319,11.571 L111.512319,11.571 C114.020319,11.552 116.034319,9.538 116.034319,7.011 C116.034319,4.522 114.020319,2.489 111.512319,2.489 L110.334319,2.489 Z M131.202165,0 C132.950165,0 134.622165,0.779 135.743165,2.033 C136.921165,3.287 137.662165,4.959 137.662165,6.84 C137.662165,8.721 136.921165,10.412 135.743165,11.647 C134.622165,12.882 132.950165,13.68 131.202165,13.68 C129.378165,13.68 127.706165,12.882 126.547165,11.647 C125.369165,10.412 124.666165,8.721 124.666165,6.84 C124.666165,4.959 125.369165,3.287 126.547165,2.033 C127.706165,0.779 129.378165,0 131.202165,0 Z M134.204165,10.146 C134.983165,9.329 135.496165,8.132 135.496165,6.84 C135.496165,5.548 134.983165,4.351 134.204165,3.515 C133.406165,2.66 132.342165,2.166 131.202165,2.166 C129.986165,2.166 128.922165,2.66 128.124165,3.515 C127.326165,4.351 126.832165,5.548 126.832165,6.84 C126.832165,8.132 127.326165,9.329 128.124165,10.146 C128.922165,11.001 129.986165,11.514 131.202165,11.514 C132.342165,11.514 133.406165,11.001 134.204165,10.146 Z M161.380011,0.608 C160.829011,0.38 160.221011,0.627 159.993011,1.159 L156.288011,9.956 L153.837011,4.123 C153.647011,3.705 153.248011,3.477 152.849011,3.477 C152.431011,3.477 152.032011,3.705 151.861011,4.123 L149.410011,9.956 L145.686011,1.159 C145.477011,0.627 144.850011,0.38 144.337011,0.608 C143.786011,0.817 143.558011,1.444 143.767011,1.957 L148.441011,13.034 C148.479011,13.091 148.498011,13.167 148.536011,13.205 L148.536011,13.224 C148.574011,13.262 148.593011,13.3 148.631011,13.338 C148.650011,13.376 148.650011,13.376 148.669011,13.395 C148.726011,13.414 148.745011,13.452 148.802011,13.49 L148.821011,13.49 C148.859011,13.528 148.935011,13.585 148.992011,13.604 C149.011011,13.604 149.011011,13.604 149.030011,13.623 C149.068011,13.623 149.106011,13.642 149.163011,13.661 L149.220011,13.661 C149.277011,13.68 149.353011,13.68 149.410011,13.68 C149.467011,13.68 149.524011,13.68 149.581011,13.661 L149.638011,13.661 C149.676011,13.642 149.714011,13.623 149.790011,13.623 C149.790011,13.604 149.809011,13.604 149.809011,13.604 L149.828011,13.604 C149.866011,13.585 149.923011,13.528 149.980011,13.49 L150.018011,13.49 C150.056011,13.452 150.094011,13.414 150.132011,13.395 C150.132011,13.376 150.151011,13.376 150.151011,13.338 L150.265011,13.224 C150.265011,13.224 150.265011,13.205 150.284011,13.205 C150.303011,13.167 150.341011,13.091 150.360011,13.034 L152.849011,7.144 L155.338011,13.034 C155.357011,13.091 155.376011,13.167 155.414011,13.205 C155.414011,13.205 155.414011,13.224 155.452011,13.224 C155.471011,13.262 155.509011,13.3 155.528011,13.338 C155.547011,13.376 155.547011,13.376 155.566011,13.395 C155.604011,13.414 155.642011,13.452 155.699011,13.49 L155.718011,13.49 C155.756011,13.528 155.813011,13.585 155.889011,13.604 C155.908011,13.604 155.908011,13.604 155.927011,13.623 C155.965011,13.623 156.003011,13.642 156.060011,13.661 L156.117011,13.661 C156.174011,13.68 156.231011,13.68 156.288011,13.68 C156.364011,13.68 156.421011,13.68 156.478011,13.661 L156.516011,13.661 C156.573011,13.642 156.630011,13.623 156.668011,13.623 C156.668011,13.604 156.687011,13.604 156.687011,13.604 L156.706011,13.604 C156.782011,13.585 156.820011,13.528 156.877011,13.49 L156.896011,13.49 C156.934011,13.452 156.991011,13.414 157.029011,13.395 C157.029011,13.376 157.048011,13.376 157.048011,13.338 C157.086011,13.3 157.124011,13.262 157.143011,13.224 L157.162011,13.205 C157.200011,13.167 157.238011,13.091 157.257011,13.034 L161.912011,1.957 C162.140011,1.444 161.893011,0.817 161.380011,0.608 Z M171.075857,4.75 L177.155857,13.186 C177.174857,13.224 177.212857,13.262 177.250857,13.3 C177.440857,13.528 177.725857,13.68 178.029857,13.68 C178.599857,13.68 179.074857,13.205 179.074857,12.635 L179.074857,1.596 C179.074857,1.045 178.599857,0.57 178.029857,0.57 C177.459857,0.57 177.003857,1.045 177.003857,1.596 L177.003857,9.424 L170.866857,0.931 C170.543857,0.475 169.897857,0.38 169.422857,0.703 C169.137857,0.912 168.985857,1.254 169.004857,1.577 L169.004857,12.635 C169.004857,13.205 169.460857,13.68 170.049857,13.68 C170.600857,13.68 171.075857,13.205 171.075857,12.635 L171.075857,4.75 Z" id="SCROLL-DOWN"></path>
                        <path d="M99.023143,24.1468939 C98.597782,23.7215328 97.9090194,23.7215328 97.4840937,24.1468939 L87.4195385,34.2101429 C87.2153478,34.4143336 87.1008443,34.6907965 87.1008443,34.9798853 C87.1008443,35.268974 87.2157832,35.5454369 87.4195385,35.7496276 L97.483223,45.8137474 C97.6956858,46.0262102 97.9743255,46.1324416 98.2529653,46.1324416 C98.5316051,46.1324416 98.8098094,46.0262102 99.0227076,45.8137474 C99.4480686,45.3888218 99.4480686,44.6996237 99.0227076,44.2746981 L89.7283302,34.9798853 L99.0235784,25.6859432 C99.448504,25.2614529 99.448504,24.5722549 99.023143,24.1468939 Z" id="Path" transform="translate(93.221531, 34.980157) rotate(-90.000000) translate(-93.221531, -34.980157) "></path>
                    </g>
                </g>
            </g>
        </g>
    </g>
</svg>