<?xml version="1.0" encoding="UTF-8"?>
<svg width="70px" height="73px" viewBox="0 0 70 73" version="1.1" xmlns="http://www.w3.org/2000/svg" xmlns:xlink="http://www.w3.org/1999/xlink">
    <!-- Generator: Sketch 43.2 (39069) - http://www.bohemiancoding.com/sketch -->
    <title>twitter</title>
    <desc>Created with Sketch.</desc>
    <defs></defs>
    <g id="Page-1" stroke="none" stroke-width="1" fill="none" fill-rule="evenodd">
        <g id="E" transform="translate(-340.000000, -7679.000000)">
            <g id="stylist" transform="translate(31.000000, 6284.000000)">
                <g id="Group-14" transform="translate(214.000000, 1395.000000)">
                    <g id="twitter" transform="translate(95.000000, 0.000000)">
                        <rect id="Rectangle" x="0" y="0" width="69.7560976" height="73"></rect>
                        <ellipse id="Oval" stroke="#787064" stroke-width="2" cx="34.8780488" cy="36.5" rx="33.8780488" ry="35.5"></ellipse>
                        <path d="M48.3951142,27.9486002 C49.8060033,27.0168444 50.8885968,25.5394075 51.3966732,23.7794243 C50.0756746,24.644318 48.615932,25.2698022 47.0584825,25.6084265 C45.8156494,24.1417738 44.0393362,23.2272727 42.0734714,23.2272727 C38.3019812,23.2272727 35.2457063,26.6027307 35.2457063,30.765436 C35.2457063,31.3564108 35.3023763,31.9322876 35.4196247,32.4822824 C29.7448022,32.1673834 24.7128917,29.1693728 21.3420003,24.6054949 C20.7538041,25.7227391 20.4176921,27.0168444 20.4176921,28.3972234 C20.4176921,31.011316 21.6233964,33.3191371 23.4563797,34.673634 C22.3366575,34.6348108 21.2833761,34.2918729 20.361022,33.731094 L20.361022,33.8238382 C20.361022,37.4775288 22.7138065,40.5251467 25.8423847,41.2153362 C25.2678675,41.3921973 24.6659924,41.4806278 24.0406676,41.4806278 C23.6009861,41.4806278 23.1710753,41.4353341 22.7567976,41.3469036 C23.6244358,44.3406005 26.1472305,46.5233248 29.1370647,46.5815595 C26.7979591,48.6046774 23.8530701,49.8081953 20.654143,49.8081953 C20.1030755,49.8081953 19.5578705,49.7758427 19.0243902,49.7046669 C22.0474448,51.8420975 25.6372,53.0909091 29.4946723,53.0909091 C42.0597924,53.0909091 48.9266403,41.6035678 48.9266403,31.6411139 C48.9266403,31.3132739 48.922732,30.9875908 48.909053,30.6662213 C50.2437306,29.6028981 51.4044898,28.2742834 52.3170732,26.762337 C51.0918274,27.3619391 49.7747371,27.7674254 48.3951142,27.9486002 Z" id="Shape" fill="#787064"></path>
                    </g>
                </g>
            </g>
        </g>
    </g>
</svg>